<svg width="76" height="80" viewBox="0 0 76 80" fill="none" xmlns="http://www.w3.org/2000/svg">
<path d="M42.398 49.3438C42.3917 49.3313 42.3887 49.317 42.3854 49.3027C42.3812 49.2893 42.3791 49.275 42.3774 49.2599C42.3753 49.2313 42.3736 49.2027 42.3728 49.1746C42.3719 49.1599 42.3719 49.1452 42.3719 49.1309C42.3711 49.1167 42.3711 49.1024 42.3711 49.0877C42.3711 33.2905 42.3711 17.4942 42.3711 1.69703C42.3711 1.65378 42.3711 1.61052 42.3711 1.56769C42.3711 1.55341 42.3711 1.53913 42.3703 1.52443C42.3694 1.49588 42.3686 1.4669 42.3661 1.43792C42.3648 1.42365 42.3614 1.40895 42.3556 1.39635C42.3497 1.38417 42.3404 1.37283 42.3295 1.36485C42.3199 1.35729 42.3056 1.35435 42.259 1.33588C28.4981 18.5336 14.7302 35.738 0.9626 52.9428C0.873571 53.0545 0.793361 53.1734 0.710211 53.2897C0.703912 53.2985 0.706432 53.3166 0.709371 53.33C0.712311 53.3438 0.72071 53.356 0.726589 53.3695C0.739608 53.3753 0.752626 53.3837 0.765644 53.3837C13.2242 53.3879 25.6828 53.3917 38.1418 53.3947C38.1699 53.3947 38.1993 53.3947 38.2275 53.398C38.256 53.4014 38.2842 53.4068 38.3119 53.4136C38.3257 53.4165 38.34 53.4207 38.3514 53.4283C38.3627 53.4371 38.3694 53.4505 38.4135 53.508C38.4135 54.6671 38.4135 55.8732 38.4135 57.0793C38.4135 58.2875 38.4135 59.4965 38.4135 60.7051C38.4135 61.9133 38.4135 63.1223 38.4135 64.3305C38.4135 65.5534 38.4135 66.7759 38.4135 67.9988C38.4135 69.2074 38.4135 70.4164 38.4135 71.6246C38.4135 72.8328 38.4135 74.0418 38.4135 75.25C38.4144 76.4515 38.4102 77.6542 38.4169 78.8473C39.1854 78.9275 42.0259 78.8989 42.3711 78.8044C42.3711 77.752 42.3711 76.69 42.3711 75.6275C42.3711 74.5776 42.3711 73.5274 42.3711 72.4771C42.3711 71.4125 42.3711 70.3484 42.3711 69.2838C42.3711 68.2331 42.3711 67.1832 42.3711 66.1325C42.3711 65.0679 42.3711 64.0042 42.3711 62.9392C42.3711 61.8747 42.3711 60.8101 42.3711 59.7459C42.3711 58.6952 42.3656 57.6454 42.3728 56.5955C42.3799 55.5381 42.3425 54.4802 42.3967 53.3942C43.636 53.3942 44.8282 53.3942 46.02 53.3942C47.2001 53.3942 48.3797 53.3942 49.5598 53.3942C50.7533 53.3951 51.9484 53.3951 53.1415 53.3951C54.322 53.3951 55.5012 53.3951 56.6808 53.3951C57.8751 53.3951 59.0695 53.3951 60.263 53.3951C61.443 53.3951 62.6222 53.3951 63.8027 53.3951C64.997 53.3951 66.1909 53.3951 67.3844 53.3951C68.5649 53.3951 69.7441 53.4001 70.9237 53.3934C72.1093 53.3863 73.2965 53.4211 74.4811 53.3711C74.4811 52.0391 74.4811 50.7633 74.4811 49.4182C63.7599 49.4182 53.0898 49.4182 42.4463 49.4182C42.4123 49.3678 42.4043 49.3564 42.398 49.3438ZM38.3858 49.4039C28.5678 49.4039 18.7675 49.4039 8.86895 49.4039C18.7184 37.0944 28.5158 24.8517 38.3127 12.6085C38.3375 12.6203 38.361 12.6325 38.3858 12.6442C38.3858 24.8874 38.3858 37.1309 38.3858 49.4039Z" fill="black"/>
<path d="M74.4719 40.155C67.5994 40.155 60.758 40.155 53.8046 40.155C53.9486 39.9669 54.0217 39.8627 54.1027 39.7657C56.6182 36.7874 59.1362 33.8113 61.6504 30.8313C63.9316 28.1264 66.2199 25.4266 68.4834 22.7062C69.645 21.3098 70.6709 19.8178 71.4474 18.1653C72.1978 16.567 72.6392 14.8914 72.596 13.1213C72.5103 9.60842 71.1656 6.64569 68.467 4.39183C65.0113 1.50553 61.01 0.715193 56.6812 1.76716C51.633 2.99383 47.9992 7.02532 47.1748 12.1441C47.1127 12.5334 47.082 12.9281 47.035 13.3359C48.3826 13.3359 49.6698 13.3359 50.9724 13.3359C51.0535 12.8622 51.1102 12.4065 51.2122 11.961C51.9245 8.84832 53.742 6.68811 56.7736 5.61682C58.1745 5.1217 59.6301 4.97052 61.1108 5.14186C63.5524 5.42407 65.5816 6.48569 66.9779 8.52328C68.8051 11.1908 69.0365 14.0418 67.6498 16.989C67.1266 18.1006 66.4374 19.1135 65.6748 20.0706C64.7513 21.2288 63.8056 22.3698 62.8515 23.5032C57.2187 30.1943 51.5801 36.8807 45.9444 43.5692C45.8583 43.6712 45.7773 43.7791 45.6882 43.8934H74.4723C74.4719 42.6608 74.4719 41.4278 74.4719 40.155Z" fill="black"/>
<path d="M74.448 50.3013L3.07161 50.3072L0.606934 53.4207H74.448V50.3013Z" fill="black"/>
<path d="M42.4159 79.4167V1.05536L38.345 6.17662V79.4167H42.4159Z" fill="black"/>
</svg>
