<svg width="578" height="316" viewBox="0 0 578 316" fill="none" xmlns="http://www.w3.org/2000/svg">
<g clip-path="url(#clip0_614_468)">
<path d="M0.0211792 316H577.979V0H0.0211792V316Z" fill="white"/>
<path d="M6.70477 310.236H578V0H6.70477V310.236Z" fill="white"/>
<path d="M131.363 174.467L142.295 185.261L153.592 174.539H162.643V177.852L148.486 191.332L162.643 205.745V174.539H188.195C193.028 174.539 200.114 176.463 200.114 185.091C200.114 197.195 190.79 197.339 185.684 197.339H172.415V209.058H153.501L141.946 197.573L130.111 208.973H92.5034V174.461H131.363V174.467ZM247.129 174.467H279.357V181.908H256.992V188.371H278.735V194.919H256.992V201.754H279.357V208.98H247.129V174.467ZM214.642 209.065H204.78V174.545H230.415C235.263 174.545 242.25 176.398 242.25 183.787C242.25 187.96 240.817 191.032 235.438 193.347C240.096 193.81 241.894 196.432 241.894 201.975L242.25 209.065H232.653L232.388 202.739C232.304 199.817 230.954 196.889 227.555 196.889H214.642V209.065ZM341.25 187.921C353.381 188.443 354.383 193.654 354.383 199.197C354.383 205.667 348.199 209.136 341.743 209.136H321.039V201.747H337.176C339.915 201.747 343.989 201.747 343.989 198.421C343.989 196.843 343.268 195.845 340.355 195.571C338.091 195.382 335.822 195.247 333.549 195.167C322.602 194.919 320.06 190.243 320.06 184.543C320.06 178.074 325.348 174.532 331.804 174.532H352.509V181.934H337.358C333.914 181.974 330.188 181.582 330.188 184.941C330.188 187.054 332.032 187.478 334.354 187.68C335.158 187.687 340.537 187.921 341.25 187.921ZM304.318 187.921C316.441 188.443 317.45 193.654 317.45 199.197C317.45 205.667 311.259 209.136 304.811 209.136H284.099V201.747H300.236C302.967 201.747 307.056 201.747 307.056 198.421C307.056 196.843 306.336 195.845 303.422 195.571C302.117 195.415 297.323 195.18 296.617 195.167C285.669 194.919 283.128 190.243 283.128 184.543C283.128 178.074 288.416 174.532 294.865 174.532H315.576V181.934H300.426C296.974 181.974 293.256 181.582 293.256 184.941C293.256 187.054 295.092 187.478 297.429 187.68C298.225 187.687 303.604 187.921 304.318 187.921ZM174.387 149.731H164.524V115.211H190.16C195 115.211 202.003 117.064 202.003 124.453C202.003 128.62 200.569 131.705 195.19 134.013C199.848 134.476 201.646 137.098 201.646 142.642L202.003 149.731H192.413L192.14 143.411C192.049 140.483 190.714 137.561 187.3 137.561H174.395L174.387 149.731ZM207.025 149.731H216.88V115.172H207.025V149.731ZM126.651 115.211H158.872V122.646H136.529V129.122H158.258V135.676H136.529V142.492H158.872V149.731H126.651V115.211ZM54.691 149.731H74.5455V124.114L87.7161 149.731H96.6837L110.165 124.537V149.731H120.02V115.211H104.293L92.1923 138.37L80.137 115.211H64.6752V148.459L47.4609 115.211H34.4269L16.856 149.731H27.2574L31.1039 142.028H50.7763L54.691 149.731ZM273.614 142.048H253.949L250.095 149.75H237.091C226.159 149.75 221.311 141.872 221.546 132.318C221.88 118.14 231.629 115.192 236.113 115.192H248.98V122.705H242.888C236.34 122.705 231.235 123.292 231.235 131.379V133.883C231.28 139.968 234.99 141.409 237.365 141.833C237.949 141.95 239.026 141.996 239.421 141.97L243.684 141.95L257.265 115.211H270.314L287.118 147.611V115.192H301.677L318.308 139.094V115.192H328.163V149.75H314.719L296.974 124.472V149.75H277.521L273.614 142.048Z" fill="#00ACEC"/>
<path d="M352.592 169.159V15.5085H17.7057V134.32L30.2617 109.981H51.5957L58.5906 124.459V109.981H84.5752L92.4654 124.316L100.174 109.981H191.783C195.364 109.981 200.205 111.064 202.367 114.448V109.981H221.546V115.218C224.057 112.296 227.821 109.981 235.164 109.981H274.251L281.421 123.996V109.981H304.553L312.792 122.157V109.981H333.944V154.967H311.184L301.677 141.722V154.967H272.817L268.159 146.183H259.01L254.708 154.967H236.598C232.653 154.667 223.519 153.272 221.546 148.041V154.967H186.769V145.113C186.769 143.718 185.335 142.028 183.362 142.028H179.599V154.967H105.553V144.8L99.9991 154.967H84.9394L79.2038 144.644V154.967H49.6231L45.678 146.959H36.1718L32.0522 154.967H17.7057V300.289H352.592V211.223C350.802 212.925 347.934 214.308 343.632 214.308H315.652V210.917C313.505 212.925 310.463 214.308 305.615 214.308H226.743V204.91C226.561 203.671 227.282 201.056 223.337 201.056H220.112V214.308H199.135V199.041C196.98 202.139 192.33 202.282 189.28 202.439H178.158V214.308H150.193L142.121 205.83L133.517 214.308H86.0167V169.159H134.238L142.659 177.324L151.27 169.159H189.454C192.14 169.302 197.246 170.385 199.135 172.85V169.159H231.766C234.633 169.159 240.187 170.228 242.524 173.463V169.159H283.393V173.156C285.54 170.698 288.954 169.159 294.144 169.159H320.318V173.013C322.291 170.541 327.495 169.159 330.545 169.159H352.592ZM444.756 165.233C444.756 171.004 419.196 164.639 419.196 178.674C419.196 185.084 425.228 187.987 432.01 187.987C437.359 187.987 441.463 187.034 445.515 183.793L446.971 187.093H459.861C459.125 185.893 459.011 184.328 459.011 182.567V168.128C459.011 160.759 457.98 155.339 440.985 155.339C426.798 155.339 421.381 159.167 421.381 165.702H435.09C435.432 163.054 438.11 162.709 440.098 162.709C441.615 162.709 444.756 163.002 444.756 165.233ZM518.924 182.932V187.06H531.73V144.631H517.49V159.304C514.463 156.239 511.314 155.3 506.793 155.3C498.22 155.3 491.574 161.952 491.574 172.211C491.574 180.93 497.059 187.941 507.885 187.941C512.49 187.941 515.571 186.708 518.924 182.932ZM487.879 165.924V155.476C487.264 155.417 486.642 155.3 486.02 155.3C480.482 155.3 476.977 157.596 474.989 162.435H474.852V156.187H461.902V187.054H476.15V174.898C476.15 168.239 479.101 165.878 484.928 165.878L487.879 165.924ZM402.794 160.772C402.308 156.363 399.084 153.826 394.016 153.826C388.326 153.826 384.896 158.013 384.896 166.198C384.896 172.152 386.406 177.741 394.623 177.741C399.842 177.741 402.308 174.63 402.93 170.561H418.483C417.057 181.517 407.93 188.104 394.919 188.104C378.607 188.104 368.729 179.521 368.729 165.722C368.729 151.994 379.555 143.45 393.34 143.45C408.415 143.45 416.852 149.874 418.157 160.765H402.794V160.772Z" fill="#00ACEC"/>
<path d="M172.422 190.263H184.705C188.734 190.263 190.167 188.254 190.167 185.945C190.167 184.25 188.87 181.987 184.743 181.987H172.422V190.263ZM124.732 181.908H102.374V188.371H124.102V194.919H102.374V201.754H125.096L135.945 191.339L126.348 181.941L124.732 181.908ZM214.642 189.806H226.925C230.954 189.806 232.388 188.26 232.388 185.945C232.388 184.25 231.09 181.987 226.963 181.987H214.642V189.806ZM174.387 130.472H186.67C190.706 130.472 192.132 128.933 192.132 126.618C192.132 124.929 190.835 122.646 186.708 122.646H174.387V130.472ZM46.9677 134.6H34.9655L40.8528 122.529L46.9677 134.6ZM263.675 122.548L257.803 134.613H269.851L263.675 122.548Z" fill="white"/>
<path d="M558.254 196.517L437.617 300.211H454.748L558.254 211.243V196.517Z" fill="#3B4095"/>
<path d="M558.253 225.532L471.385 300.211H488.501L558.253 240.264V225.532Z" fill="#00ACEC"/>
<path d="M558.253 254.553L505.124 300.211H522.27L558.253 269.272V254.553Z" fill="#6CB35E"/>
<path d="M364.845 283.881C364.85 281.728 365.348 279.596 366.312 277.609C367.276 275.621 368.685 273.816 370.461 272.297C372.236 270.778 374.343 269.575 376.66 268.756C378.976 267.937 381.458 267.519 383.963 267.525C386.462 267.523 388.938 267.945 391.247 268.766C393.557 269.588 395.655 270.792 397.422 272.311C399.189 273.831 400.591 275.634 401.546 277.62C402.502 279.605 402.993 281.732 402.991 283.881C403.002 286.035 402.518 288.171 401.567 290.164C400.616 292.158 399.216 293.97 397.448 295.498C395.68 297.025 393.579 298.237 391.265 299.065C388.951 299.893 386.47 300.32 383.963 300.322C381.451 300.325 378.963 299.901 376.642 299.076C374.32 298.25 372.211 297.039 370.435 295.512C368.659 293.985 367.251 292.171 366.292 290.175C365.332 288.179 364.841 286.04 364.845 283.881Z" fill="#00ACEC"/>
<path d="M400.692 283.881C400.693 281.992 400.261 280.122 399.42 278.378C398.58 276.633 397.348 275.048 395.794 273.713C394.24 272.378 392.396 271.319 390.366 270.598C388.336 269.876 386.16 269.505 383.963 269.507C381.763 269.502 379.584 269.87 377.549 270.59C375.515 271.31 373.666 272.368 372.107 273.703C370.549 275.038 369.313 276.624 368.469 278.371C367.625 280.117 367.19 281.99 367.189 283.881C367.189 287.7 368.954 291.363 372.095 294.063C375.237 296.764 379.498 298.281 383.94 298.281C388.383 298.281 392.644 296.764 395.786 294.063C398.927 291.363 400.692 287.7 400.692 283.881Z" fill="white"/>
<path d="M393.447 293.07H390.359L384.252 284.611H379.472V293.07H376.87V274.731H386.156C387.954 274.731 389.752 274.822 391.353 275.637C392.954 276.414 393.743 278.044 393.743 279.583C393.743 283.196 390.806 284.527 387.006 284.611L393.447 293.07Z" fill="#00ACEC"/>
<path d="M383.47 282.85C386.467 282.85 391.11 283.281 391.11 279.537C391.11 276.707 388.212 276.368 385.564 276.368H379.479V282.85H383.47ZM444.756 173.424C444.794 179.202 442.73 181.028 437.731 181.028C434.916 181.028 433.201 179.965 433.201 178.439C433.209 174.422 440.105 175.367 444.756 173.424ZM517.968 171.917C517.968 175.504 516.397 179.098 511.458 179.098C506.808 179.098 505.852 175.335 505.852 172.087C505.852 168.682 507.149 164.783 511.883 164.783C516.602 164.783 517.968 168.493 517.968 171.917Z" fill="white"/>
</g>
<defs>
<clipPath id="clip0_614_468">
<rect width="578" height="316" fill="white"/>
</clipPath>
</defs>
</svg>
