<svg width="18" height="22" viewBox="0 0 18 22" fill="none" xmlns="http://www.w3.org/2000/svg">
<path d="M14.9974 20.5076C13.8344 21.635 12.5645 21.457 11.3422 20.9229C10.0486 20.377 8.86179 20.3533 7.49699 20.9229C5.78802 21.6588 4.88607 21.4451 3.86544 20.5076C-1.92605 14.5381 -1.07157 5.44732 5.5032 5.11503C7.10535 5.1981 8.22093 5.99324 9.15848 6.06445C10.5589 5.77962 11.8999 4.96074 13.3953 5.06755C15.1873 5.20997 16.5403 5.92204 17.4303 7.20376C13.7276 9.42304 14.6058 14.3007 18 15.6655C17.3235 17.4457 16.4453 19.214 14.9856 20.5194L14.9974 20.5076ZM9.0398 5.04382C8.86179 2.3973 11.0099 0.213621 13.4784 0C13.8225 3.06189 10.7013 5.34051 9.0398 5.04382Z" fill="#010101"/>
</svg>
