<svg width="46" height="46" viewBox="0 0 46 46" fill="none" xmlns="http://www.w3.org/2000/svg">
<path fill-rule="evenodd" clip-rule="evenodd" d="M22.7949 2.97644C17.5698 2.97644 12.5588 5.05209 8.86409 8.74678C5.1694 12.4415 3.09375 17.4525 3.09375 22.6776C3.09375 27.9027 5.1694 32.9138 8.86409 36.6084C12.5588 40.3031 17.5698 42.3788 22.7949 42.3788C28.02 42.3788 33.0311 40.3031 36.7258 36.6084C40.4204 32.9138 42.4961 27.9027 42.4961 22.6776C42.4961 17.4525 40.4204 12.4415 36.7258 8.74678C33.0311 5.05209 28.02 2.97644 22.7949 2.97644ZM22.7949 45.1932C16.8234 45.1932 11.0965 42.8211 6.87397 38.5986C2.65147 34.3761 0.279298 28.6491 0.279298 22.6776C0.279298 16.7061 2.65147 10.9792 6.87397 6.75666C11.0965 2.53416 16.8234 0.161986 22.7949 0.161986C28.7664 0.161987 34.4934 2.53416 38.7159 6.75666C42.9384 10.9792 45.3105 16.7061 45.3105 22.6776C45.3105 28.6491 42.9384 34.3761 38.7159 38.5986C34.4934 42.8211 28.7664 45.1932 22.7949 45.1932ZM32.6455 24.0848C33.0187 24.0848 33.3767 23.9366 33.6406 23.6727C33.9045 23.4088 34.0527 23.0508 34.0527 22.6776C34.0527 22.3044 33.9045 21.9465 33.6406 21.6826C33.3767 21.4186 33.0187 21.2704 32.6455 21.2704L16.3414 21.2704L22.384 15.2306C22.6483 14.9663 22.7967 14.6079 22.7967 14.2343C22.7967 13.8606 22.6483 13.5022 22.384 13.2379C22.1198 12.9737 21.7614 12.8252 21.3877 12.8252C21.014 12.8252 20.6556 12.9737 20.3914 13.2379L11.948 21.6813C11.817 21.812 11.713 21.9673 11.6421 22.1383C11.5711 22.3092 11.5346 22.4925 11.5346 22.6776C11.5346 22.8627 11.5711 23.046 11.6421 23.217C11.713 23.3879 11.817 23.5432 11.948 23.6739L20.3914 32.1173C20.6556 32.3815 21.014 32.53 21.3877 32.53C21.7614 32.53 22.1198 32.3815 22.384 32.1173C22.6483 31.853 22.7967 31.4947 22.7967 31.121C22.7967 30.7473 22.6483 30.3889 22.384 30.1247L16.3414 24.0848L32.6455 24.0848Z" fill="#010101"/>
</svg>
