<svg width="46" height="46" viewBox="0 0 46 46" fill="none" xmlns="http://www.w3.org/2000/svg">
<path fill-rule="evenodd" clip-rule="evenodd" d="M22.8398 42.379C28.0649 42.379 33.076 40.3034 36.7707 36.6087C40.4654 32.914 42.541 27.9029 42.541 22.6779C42.541 17.4528 40.4654 12.4417 36.7707 8.74702C33.076 5.05234 28.0649 2.97668 22.8398 2.97668C17.6148 2.97668 12.6037 5.05234 8.90901 8.74702C5.21433 12.4417 3.13867 17.4528 3.13867 22.6779C3.13867 27.9029 5.21433 32.914 8.90901 36.6087C12.6037 40.3034 17.6148 42.379 22.8398 42.379ZM22.8398 0.162232C28.8114 0.162232 34.5383 2.53441 38.7608 6.75691C42.9833 10.9794 45.3555 16.7063 45.3555 22.6779C45.3555 28.6494 42.9833 34.3763 38.7608 38.5988C34.5383 42.8213 28.8114 45.1935 22.8398 45.1935C16.8683 45.1935 11.1414 42.8213 6.91889 38.5988C2.69639 34.3763 0.324219 28.6494 0.324219 22.6779C0.324219 16.7063 2.69639 10.9794 6.91889 6.7569C11.1414 2.5344 16.8683 0.162232 22.8398 0.162232ZM12.9893 21.2706C12.616 21.2706 12.2581 21.4189 11.9942 21.6828C11.7303 21.9467 11.582 22.3046 11.582 22.6779C11.582 23.0511 11.7303 23.409 11.9942 23.6729C12.2581 23.9368 12.616 24.0851 12.9893 24.0851L29.2934 24.0851L23.2508 30.1249C22.9865 30.3891 22.8381 30.7475 22.8381 31.1212C22.8381 31.4949 22.9865 31.8533 23.2508 32.1175C23.515 32.3818 23.8734 32.5302 24.2471 32.5302C24.6208 32.5302 24.9791 32.3818 25.2434 32.1175L33.6867 23.6742C33.8178 23.5435 33.9218 23.3882 33.9927 23.2172C34.0637 23.0462 34.1002 22.863 34.1002 22.6779C34.1002 22.4928 34.0637 22.3095 33.9927 22.1385C33.9218 21.9676 33.8178 21.8123 33.6867 21.6815L25.2434 13.2382C24.9791 12.9739 24.6208 12.8255 24.2471 12.8255C23.8734 12.8255 23.515 12.9739 23.2508 13.2382C22.9865 13.5024 22.8381 13.8608 22.8381 14.2345C22.8381 14.6082 22.9865 14.9666 23.2508 15.2308L29.2934 21.2706L12.9893 21.2706Z" fill="#E6E6E6"/>
</svg>
