<svg width="431" height="81" viewBox="0 0 431 81" fill="none" xmlns="http://www.w3.org/2000/svg">
<path d="M41.3208 53.249C40.4717 53.9093 39.5283 54.4754 38.3962 54.9471C37.2642 55.4188 35.8491 55.7018 34.2453 55.7018C31.2264 55.7018 29.0566 55.0414 27.6415 53.7207C26.3208 52.3999 25.3774 50.6075 24.8113 48.249H24.6226C24.3396 48.815 24.0566 49.5697 23.5849 50.4188C23.1132 51.2678 22.4528 52.1169 21.5094 52.8716C20.566 53.6263 19.3396 54.2867 17.8302 54.8527C16.3208 55.4188 14.434 55.7018 12.0755 55.7018C9.43396 55.7018 7.26415 55.4188 5.75472 54.7584C4.15094 54.1924 2.92453 53.4376 2.07547 52.4942C1.22642 51.6452 0.566038 50.6075 0.283019 49.4754C0.188679 48.4376 0 47.3999 0 46.4565C0 44.2867 0.471698 42.4942 1.32075 41.1735C2.16981 39.8527 3.39623 38.815 4.81132 37.9659C6.22642 37.2112 7.83019 36.5508 9.5283 35.9848C11.2264 35.5131 13.0189 34.9471 14.8113 34.381C16.8868 33.7207 18.5849 33.0603 20 32.5886C21.3208 32.1169 22.4528 31.4565 23.2076 30.7018C23.9623 29.9471 24.5283 29.098 24.8113 27.9659C25.0943 26.8339 25.283 25.3244 25.283 23.4376C25.283 21.9282 25.1887 20.6074 25 19.381C24.8113 18.1546 24.434 17.1169 23.9623 16.2678C23.4906 15.4188 22.7359 14.7584 21.7925 14.2867C20.8491 13.815 19.6226 13.6263 18.0189 13.6263C15.9434 13.6263 14.2453 14.0037 12.8302 14.7584C11.5094 15.5131 10.7547 16.6452 10.7547 18.3433C10.7547 19.381 10.8491 20.5131 11.0377 21.5508C11.2264 22.5886 11.3208 23.3433 11.3208 23.9093C11.3208 24.7584 11.0377 25.5131 10.3774 26.1735C9.71698 26.7395 8.86793 27.1169 7.64151 27.1169C5.56604 27.1169 4.24528 26.7395 3.77359 25.9848C3.11321 25.1358 2.83019 24.098 2.83019 22.9659C2.83019 21.5508 3.11321 20.2301 3.77359 19.0037C4.43396 17.7773 5.37736 16.6452 6.60377 15.6075C7.83019 14.6641 9.33962 13.815 11.2264 13.249C13.1132 12.6829 15.1887 12.3999 17.6415 12.3999C20.566 12.3999 23.0189 12.7773 24.9057 13.532C26.8868 14.2867 28.3962 15.2301 29.6226 16.4565C30.8491 17.6829 31.6981 19.098 32.1698 20.6075C32.6415 22.1169 32.9245 23.815 32.9245 25.5131V49.098C32.9245 50.8905 33.2076 52.1169 33.7736 52.7773C34.3396 53.4376 35.1887 53.7207 36.2264 53.7207C36.8868 53.7207 37.6415 53.6263 38.3962 53.3433C39.1509 53.0603 39.9057 52.6829 40.566 52.2112L41.3208 53.249ZM24.8113 31.0791H24.6226C24.5283 31.9282 23.4906 32.6829 21.5094 33.532L14.434 36.3622C12.4528 37.2112 10.8491 38.3433 9.81132 39.8527C8.77359 41.3622 8.20755 43.1546 8.20755 45.4188C8.20755 46.3622 8.30189 47.3056 8.49057 48.3433C8.67925 49.381 9.05661 50.2301 9.5283 51.0791C10 51.8339 10.7547 52.4942 11.6981 53.0603C12.6415 53.532 13.7736 53.815 15.283 53.815C17.3585 53.815 19.0566 53.3433 20.3774 52.4942C21.6981 51.6452 22.6415 50.5131 23.3019 49.1924C23.9623 47.8716 24.434 46.4565 24.6226 44.8527C24.8113 43.3433 25 41.9282 25 40.6075V31.0791H24.8113Z" fill="black"/>
<path d="M41.7926 52.966H49.0568V14.9471H41.7926V13.6263H57.0756V23.1546H57.2643C57.5473 22.2112 57.9247 21.1735 58.4907 19.9471C59.0568 18.7207 59.8115 17.5886 60.8492 16.4565C61.8869 15.3245 63.1134 14.3811 64.5285 13.6263C65.9436 12.8716 67.6417 12.4943 69.7171 12.4943C71.1322 12.4943 72.453 12.7773 73.4907 13.249C74.5285 13.7207 75.4718 14.2867 76.1322 15.0414C76.7926 15.7961 77.3586 16.6452 77.6417 17.5886C77.9247 18.532 78.1134 19.4754 78.1134 20.4188C78.1134 22.4943 77.6417 23.9094 76.6983 24.5697C75.7549 25.2301 74.6228 25.6075 73.3964 25.6075C70.6605 25.6075 69.2454 24.7584 69.2454 22.966C69.2454 22.3999 69.3398 21.9282 69.4341 21.5509C69.5285 21.1735 69.7171 20.8905 69.9058 20.5131C70.0945 20.1358 70.1888 19.7584 70.3775 19.2867C70.4719 18.815 70.5662 18.249 70.5662 17.3999C70.5662 15.4188 69.4341 14.3811 67.2643 14.3811C66.2266 14.3811 65.1888 14.7584 64.0568 15.5131C62.9247 16.2678 61.8869 17.3999 60.8492 18.815C59.9058 20.2301 59.0568 22.0226 58.3964 24.098C57.736 26.1735 57.3586 28.532 57.3586 31.1735V52.8716H65.5662V54.1924H41.7926V52.966Z" fill="black"/>
<path d="M77.0753 13.6263H84.3395V1.4565C84.8112 1.64518 85.2829 1.83386 85.7546 1.9282C86.2263 2.02254 86.981 2.11688 88.0187 2.11688C88.9621 2.11688 89.8112 2.02254 90.4715 1.73952C91.2263 1.55084 91.8866 1.17348 92.4527 0.701782V13.6263H105.849V14.9471H92.4527V45.9848C92.4527 47.7773 92.6414 49.1924 93.0187 50.3244C93.3961 51.4565 93.8678 52.3056 94.4338 52.8716C94.9998 53.4376 95.6602 53.9093 96.3206 54.098C96.981 54.2867 97.6414 54.381 98.3017 54.381C100.472 54.381 102.264 53.532 103.679 51.9282C105 50.3244 105.943 48.4376 106.321 46.3622L107.641 46.8339C107.453 47.6829 107.17 48.532 106.792 49.5697C106.415 50.6074 105.849 51.5508 105 52.4942C104.245 53.4376 103.207 54.1924 101.887 54.7584C100.66 55.3244 99.0565 55.7018 97.1697 55.7018C92.4527 55.7018 89.1508 54.7584 87.264 52.9659C85.3772 51.1735 84.4338 48.532 84.4338 45.2301V14.9471H77.1697V13.6263H77.0753Z" fill="black"/>
<path d="M131.226 79.4754H138.49V14.9471H131.226V13.6263H146.509V21.5508H146.698C147.641 18.9093 149.245 16.7395 151.415 14.9471C153.585 13.2489 156.415 12.3055 159.906 12.3055C162.641 12.3055 165.189 12.8716 167.547 14.098C169.906 15.2301 172.075 16.8338 173.868 18.7206C175.66 20.6074 177.17 22.8716 178.207 25.5131C179.245 28.0603 179.811 30.7961 179.811 33.6263C179.811 36.5508 179.245 39.2867 178.113 41.9282C176.981 44.5697 175.472 46.8338 173.585 48.9093C171.698 50.8905 169.528 52.4942 166.981 53.7206C164.528 54.9471 161.887 55.5131 159.056 55.5131C156.887 55.5131 155.094 55.1357 153.585 54.381C152.075 53.6263 150.849 52.7772 149.906 51.8338C148.962 50.8905 148.207 49.8527 147.736 48.815C147.264 47.7772 146.887 46.9282 146.698 46.2678H146.509V79.2867H153.773V80.6074H131.038V79.4754H131.226ZM170.283 32.5886C170.283 29.664 170.094 27.1169 169.811 24.7584C169.528 22.4942 168.962 20.5131 168.113 18.815C167.358 17.2112 166.226 15.8904 164.811 15.0414C163.396 14.1923 161.604 13.7206 159.339 13.7206C156.981 13.7206 155.094 14.098 153.585 14.9471C152.075 15.7961 150.849 16.8338 149.906 18.0603C149.245 18.9093 148.679 19.8527 148.207 20.8904C147.83 21.9282 147.453 23.0603 147.17 24.4754C146.887 25.8904 146.698 27.4942 146.604 29.2867C146.509 31.0791 146.415 33.2489 146.415 35.7018C146.415 37.7772 146.604 39.9471 146.887 42.1169C147.17 44.2867 147.83 46.3621 148.679 48.1546C149.528 49.9471 150.849 51.4565 152.453 52.5886C154.056 53.7206 156.226 54.2867 158.868 54.2867C161.415 54.2867 163.49 53.815 165 52.7772C166.509 51.7395 167.641 50.3244 168.396 48.4376C169.151 46.5508 169.623 44.2867 169.811 41.5508C170.189 38.9093 170.283 35.8905 170.283 32.5886Z" fill="black"/>
<path d="M227.547 53.249C226.698 53.9093 225.755 54.4754 224.623 54.9471C223.491 55.4188 222.075 55.7018 220.472 55.7018C217.453 55.7018 215.283 55.0414 213.868 53.7207C212.547 52.3999 211.604 50.6075 211.038 48.249H210.849C210.566 48.815 210.283 49.5697 209.811 50.4188C209.34 51.2678 208.679 52.1169 207.736 52.8716C206.792 53.6263 205.566 54.2867 204.057 54.8527C202.547 55.4188 200.66 55.7018 198.302 55.7018C195.66 55.7018 193.491 55.4188 191.981 54.7584C190.377 54.1924 189.151 53.4376 188.302 52.4942C187.453 51.6452 186.792 50.6075 186.509 49.4754C186.226 48.3433 186.038 47.3056 186.038 46.3622C186.038 44.1924 186.509 42.3999 187.358 41.0791C188.208 39.7584 189.434 38.7207 190.849 37.8716C192.264 37.1169 193.868 36.4565 195.566 35.8905C197.264 35.4188 199.057 34.8527 200.849 34.2867C202.925 33.6263 204.623 32.9659 206.038 32.4942C207.358 32.0225 208.491 31.3622 209.245 30.6075C210 29.8527 210.566 29.0037 210.849 27.8716C211.132 26.7395 211.321 25.2301 211.321 23.3433C211.321 21.8339 211.226 20.5131 211.038 19.2867C210.849 18.0603 210.472 17.0225 210 16.1735C209.528 15.3244 208.774 14.6641 207.83 14.1924C206.887 13.7207 205.66 13.532 204.057 13.532C201.981 13.532 200.283 13.9093 198.868 14.6641C197.547 15.4188 196.792 16.5508 196.792 18.249C196.792 19.2867 196.887 20.4188 197.075 21.4565C197.264 22.4942 197.358 23.249 197.358 23.815C197.358 24.6641 197.075 25.4188 196.415 26.0791C195.755 26.6452 194.906 27.0225 193.679 27.0225C191.604 27.0225 190.283 26.6452 189.811 25.8905C189.34 25.1358 189.057 24.1924 189.057 22.9659C189.057 21.5508 189.34 20.2301 190 19.0037C190.66 17.7773 191.604 16.6452 192.83 15.6075C194.057 14.6641 195.566 13.815 197.453 13.249C199.34 12.6829 201.415 12.3999 203.868 12.3999C206.792 12.3999 209.245 12.7773 211.132 13.532C213.113 14.2867 214.623 15.2301 215.849 16.4565C217.075 17.6829 217.925 19.098 218.396 20.6075C218.868 22.1169 219.151 23.815 219.151 25.5131V49.098C219.151 50.8905 219.434 52.1169 220 52.7773C220.566 53.4376 221.415 53.7207 222.453 53.7207C223.113 53.7207 223.868 53.6263 224.623 53.3433C225.377 53.0603 226.132 52.6829 226.792 52.2112L227.547 53.249ZM210.943 31.0791H210.755C210.66 31.9282 209.623 32.6829 207.642 33.532L200.566 36.3622C198.585 37.2112 196.981 38.3433 195.943 39.8527C194.906 41.3622 194.34 43.1546 194.34 45.4188C194.34 46.3622 194.434 47.3056 194.623 48.3433C194.811 49.381 195.189 50.2301 195.66 51.0791C196.132 51.8339 196.887 52.4942 197.83 53.0603C198.774 53.532 199.906 53.815 201.415 53.815C203.491 53.815 205.189 53.3433 206.509 52.4942C207.83 51.6452 208.774 50.5131 209.434 49.1924C210.094 47.8716 210.566 46.4565 210.755 44.8527C210.943 43.3433 211.132 41.9282 211.132 40.6075V31.0791H210.943Z" fill="black"/>
<path d="M228.019 52.966H235.283V14.9471H228.019V13.6263H243.302V23.1546H243.491C243.774 22.2112 244.151 21.1735 244.717 19.9471C245.283 18.7207 246.038 17.5886 247.076 16.4565C248.113 15.3245 249.34 14.3811 250.755 13.6263C252.17 12.8716 253.868 12.4943 255.944 12.4943C257.359 12.4943 258.679 12.7773 259.717 13.249C260.755 13.7207 261.698 14.2867 262.359 15.0414C263.019 15.7961 263.585 16.6452 263.868 17.5886C264.151 18.532 264.34 19.4754 264.34 20.4188C264.34 22.4943 263.868 23.9094 262.925 24.5697C261.981 25.2301 260.849 25.6075 259.623 25.6075C256.887 25.6075 255.472 24.7584 255.472 22.966C255.472 22.3999 255.566 21.9282 255.661 21.5509C255.755 21.1735 255.944 20.8905 256.132 20.5131C256.321 20.1358 256.415 19.7584 256.604 19.2867C256.698 18.815 256.793 18.249 256.793 17.3999C256.793 15.4188 255.661 14.3811 253.491 14.3811C252.453 14.3811 251.415 14.7584 250.283 15.5131C249.151 16.2678 248.113 17.3999 247.076 18.815C246.132 20.2301 245.283 22.0226 244.623 24.098C243.962 26.1735 243.585 28.532 243.585 31.1735V52.8716H251.793V54.1924H228.113V52.966H228.019Z" fill="black"/>
<path d="M263.207 13.6263H270.472V1.45648C270.943 1.64516 271.415 1.83384 271.887 1.92818C272.358 2.02252 273.113 2.11686 274.151 2.11686C275.094 2.11686 275.943 2.02252 276.604 1.7395C277.264 1.55082 277.924 1.17346 278.585 0.607422V13.532H291.981V14.8527H278.585V45.9848C278.585 47.7772 278.773 49.1923 279.151 50.3244C279.528 51.4565 280 52.3055 280.566 52.8716C281.132 53.4376 281.792 53.9093 282.453 54.098C283.113 54.2867 283.773 54.381 284.434 54.381C286.604 54.381 288.396 53.532 289.811 51.9282C291.132 50.3244 292.075 48.4376 292.453 46.3621L293.773 46.8338C293.585 47.6829 293.302 48.532 292.924 49.5697C292.547 50.6074 291.981 51.5508 291.132 52.4942C290.377 53.4376 289.339 54.1923 288.019 54.7584C286.792 55.3244 285.189 55.7018 283.302 55.7018C278.585 55.7018 275.283 54.7584 273.396 52.9659C271.509 51.1735 270.566 48.532 270.566 45.2301V14.947H263.207V13.6263Z" fill="black"/>
<path d="M293.113 52.966H300.378V14.9471H293.113V13.6263H308.396V23.7207H308.585C308.962 22.8716 309.528 21.8339 310.283 20.6075C311.038 19.3811 311.981 18.1546 313.302 16.9282C314.528 15.7018 316.132 14.6641 318.019 13.815C319.906 12.966 322.17 12.4943 324.906 12.4943C329.057 12.4943 332.453 13.532 335.095 15.5131C337.736 17.4943 339.057 20.7962 339.057 25.1358V52.7773H346.321V54.098H323.585V52.7773H330.849V22.3999C330.849 19.9471 330.283 17.966 329.057 16.3622C327.925 14.7584 326.038 14.0037 323.585 14.0037C321.604 14.0037 319.623 14.4754 317.83 15.3245C316.038 16.1735 314.434 17.3999 313.019 19.0037C311.604 20.6075 310.566 22.3999 309.717 24.5697C308.962 26.7395 308.491 29.098 308.491 31.5509V52.966H315.755V54.2867H293.019V52.966H293.113Z" fill="black"/>
<path d="M360.094 30.7961C360.094 31.4565 360.094 32.1169 360.094 32.7772C360.094 33.4376 360 34.2867 360 35.3244C360 37.3999 360.094 39.5697 360.377 41.8338C360.66 44.098 361.226 46.1735 362.075 47.9659C362.924 49.7584 364.151 51.2678 365.849 52.4942C367.547 53.7206 369.717 54.2867 372.547 54.2867C375.283 54.2867 377.641 53.9093 379.434 53.0603C381.226 52.2112 382.641 51.2678 383.679 50.0414C384.717 48.9093 385.472 47.6829 386.038 46.4565C386.509 45.2301 386.887 44.2867 387.17 43.532L388.585 43.815C388.396 44.4754 388.019 45.5131 387.453 46.8338C386.887 48.1546 386.038 49.381 384.906 50.7018C383.773 52.0225 382.17 53.1546 380.189 54.098C378.207 55.0414 375.66 55.6074 372.453 55.6074C369.245 55.6074 366.415 55.1357 363.679 54.098C361.038 53.0603 358.679 51.6452 356.698 49.7584C354.717 47.8716 353.207 45.6074 352.17 42.9659C351.132 40.3244 350.566 37.3999 350.566 34.1923C350.566 31.4565 351.132 28.7206 352.264 26.0791C353.396 23.4376 354.906 21.1735 356.792 19.098C358.679 17.1169 360.943 15.4187 363.585 14.1923C366.132 12.9659 368.962 12.3055 371.887 12.3055C373.679 12.3055 375.566 12.5886 377.547 13.2489C379.528 13.9093 381.415 14.9471 383.207 16.3621C384.906 17.7772 386.415 19.664 387.547 22.0225C388.679 24.381 389.34 27.3055 389.34 30.7018H360.094V30.7961ZM379.528 29.4754C379.623 28.6263 379.717 27.7772 379.717 27.0225C379.717 26.2678 379.717 25.5131 379.717 24.664C379.717 22.4942 379.528 20.7961 379.056 19.381C378.679 17.9659 378.113 16.9282 377.358 16.0791C376.604 15.2301 375.755 14.664 374.717 14.2867C373.679 13.9093 372.547 13.7206 371.321 13.7206C369.151 13.7206 367.453 14.1923 366.038 15.0414C364.623 15.8904 363.585 17.0225 362.736 18.532C361.887 19.9471 361.321 21.6452 360.849 23.532C360.472 25.4188 360.189 27.3999 360 29.4754H379.528Z" fill="black"/>
<path d="M393.773 52.966H401.038V14.9471H393.773V13.6263H409.056V23.1546H409.245C409.528 22.2112 409.906 21.1735 410.472 19.9471C411.038 18.7207 411.792 17.5886 412.83 16.4565C413.868 15.3245 415.094 14.3811 416.509 13.6263C417.924 12.8716 419.623 12.4943 421.698 12.4943C423.113 12.4943 424.434 12.7773 425.472 13.249C426.509 13.7207 427.453 14.2867 428.113 15.0414C428.773 15.7961 429.339 16.6452 429.622 17.5886C429.906 18.532 430.094 19.4754 430.094 20.4188C430.094 22.4943 429.622 23.9094 428.679 24.5697C427.736 25.2301 426.604 25.6075 425.377 25.6075C422.641 25.6075 421.226 24.7584 421.226 22.966C421.226 22.3999 421.321 21.9282 421.415 21.5509C421.509 21.1735 421.698 20.8905 421.887 20.5131C422.075 20.1358 422.17 19.7584 422.358 19.2867C422.453 18.815 422.547 18.249 422.547 17.3999C422.547 15.4188 421.415 14.3811 419.245 14.3811C418.207 14.3811 417.17 14.7584 416.038 15.5131C414.906 16.2678 413.868 17.3999 412.83 18.815C411.887 20.2301 411.038 22.0226 410.377 24.098C409.717 26.1735 409.339 28.532 409.339 31.1735V52.8716H417.547V54.1924H393.868V52.966H393.773Z" fill="black"/>
</svg>
