<svg width="79" height="53" viewBox="0 0 79 53" fill="none" xmlns="http://www.w3.org/2000/svg">
<path d="M39.9197 2.92632L27.9709 13.7482C25.9836 15.5426 25.6009 18.7726 27.1069 21.0778C28.6992 23.5348 31.7975 24.0179 33.933 22.1545L46.1903 11.4982C47.0544 10.7529 48.2888 10.9185 48.9677 11.8847C49.6466 12.851 49.4861 14.2313 48.622 14.9905L46.0422 17.2267L63.2 34.895V8.83418H63.1136L62.6322 8.4891L53.6706 2.07051C51.782 0.717777 49.5725 0 47.3259 0C44.635 0 42.0181 1.03526 39.9197 2.92632ZM42.7341 20.0978L36.3523 25.6467C32.4641 29.0424 26.823 28.159 23.9098 23.6867C21.1695 19.4766 21.8608 13.5964 25.4775 10.325L35.7475 1.03526C34.3156 0.358889 32.7727 0.0138032 31.205 0.0138032C28.8844 -2.10829e-07 26.6255 0.772991 24.6875 2.20855L15.8 8.83418V39.7538H19.2809L30.5631 51.2659C32.9825 53.7367 36.7227 53.5434 38.9322 50.838C39.6111 49.996 40.0678 49.0159 40.3023 47.9945L42.4008 50.1478C44.8078 52.6186 48.5603 52.4392 50.7698 49.7475C51.3253 49.0711 51.7327 48.2843 51.9919 47.4699C54.3866 49.2644 57.6453 48.8917 59.6573 46.4347C61.8669 43.743 61.7064 39.5468 59.2994 37.076L42.7341 20.0978ZM1.975 8.83418C0.88875 8.83418 0 9.82803 0 11.0427V39.7538C0 42.197 1.76516 44.1709 3.95 44.1709H7.9C10.0848 44.1709 11.85 42.197 11.85 39.7538V8.83418H1.975ZM5.925 35.3367C6.4488 35.3367 6.95115 35.5694 7.32154 35.9836C7.69192 36.3978 7.9 36.9595 7.9 37.5453C7.9 38.131 7.69192 38.6928 7.32154 39.107C6.95115 39.5211 6.4488 39.7538 5.925 39.7538C5.4012 39.7538 4.89885 39.5211 4.52846 39.107C4.15808 38.6928 3.95 38.131 3.95 37.5453C3.95 36.9595 4.15808 36.3978 4.52846 35.9836C4.89885 35.5694 5.4012 35.3367 5.925 35.3367ZM67.15 8.83418V39.7538C67.15 42.197 68.9152 44.1709 71.1 44.1709H75.05C77.2348 44.1709 79 42.197 79 39.7538V11.0427C79 9.82803 78.1113 8.83418 77.025 8.83418H67.15ZM71.1 37.5453C71.1 36.9595 71.3081 36.3978 71.6785 35.9836C72.0488 35.5694 72.5512 35.3367 73.075 35.3367C73.5988 35.3367 74.1012 35.5694 74.4715 35.9836C74.8419 36.3978 75.05 36.9595 75.05 37.5453C75.05 38.131 74.8419 38.6928 74.4715 39.107C74.1012 39.5211 73.5988 39.7538 73.075 39.7538C72.5512 39.7538 72.0488 39.5211 71.6785 39.107C71.3081 38.6928 71.1 38.131 71.1 37.5453Z" fill="black"/>
</svg>
