<svg width="18" height="14" viewBox="0 0 18 14" fill="none" xmlns="http://www.w3.org/2000/svg">
<path d="M7.67724 0.849778C7.89554 1.08296 8.00032 1.36473 7.99159 1.69507C7.98213 2.02541 7.86825 2.30718 7.64995 2.54036L4.56649 5.83408L16.7366 5.83408C17.0459 5.83408 17.3053 5.94601 17.5149 6.16987C17.7237 6.39295 17.8281 6.66966 17.8281 7C17.8281 7.33035 17.7237 7.60745 17.5149 7.8313C17.3053 8.05438 17.0459 8.16592 16.7366 8.16592L4.56649 8.16592L7.67724 11.4888C7.89554 11.722 8.00469 11.9991 8.00469 12.3201C8.00469 12.6403 7.89554 12.917 7.67724 13.1502C7.45894 13.3834 7.19953 13.5 6.89901 13.5C6.59921 13.5 6.34016 13.3834 6.12186 13.1502L1.12828 7.81614C1.01914 7.69955 0.941638 7.57324 0.895796 7.43722C0.85068 7.3012 0.828124 7.15546 0.828124 7C0.828124 6.84454 0.85068 6.6988 0.895796 6.56278C0.941638 6.42676 1.01914 6.30045 1.12829 6.18386L6.14915 0.82063C6.34926 0.606878 6.59921 0.500001 6.89901 0.500001C7.19953 0.500001 7.45894 0.616594 7.67724 0.849778Z" fill="#F5F5F5"/>
</svg>
