<svg width="299" height="53" viewBox="0 0 299 53" fill="none" xmlns="http://www.w3.org/2000/svg">
<path d="M81.5234 6.57257H82.9419L86.9281 12.9557H87.0463L91.0325 6.57257H92.451L87.5979 14.1969V20.0219H86.3764V14.1969L81.5234 6.57257ZM113.196 13.2972C113.196 14.6982 112.946 15.9175 112.447 16.955C111.948 17.9883 111.261 18.7894 110.385 19.3586C109.514 19.9233 108.511 20.2057 107.378 20.2057C106.244 20.2057 105.239 19.9233 104.363 19.3586C103.492 18.7894 102.807 17.9883 102.308 16.955C101.813 15.9175 101.566 14.6982 101.566 13.2972C101.566 11.8962 101.813 10.6792 102.308 9.64594C102.807 8.60835 103.494 7.80717 104.37 7.24241C105.245 6.67326 106.248 6.38869 107.378 6.38869C108.511 6.38869 109.514 6.67326 110.385 7.24241C111.261 7.80717 111.948 8.60835 112.447 9.64594C112.946 10.6792 113.196 11.8962 113.196 13.2972ZM112.001 13.2972C112.001 12.0933 111.799 11.0622 111.397 10.2041C110.994 9.34167 110.444 8.68277 109.748 8.22746C109.052 7.77215 108.262 7.54449 107.378 7.54449C106.498 7.54449 105.71 7.77215 105.013 8.22746C104.317 8.68277 103.766 9.33948 103.359 10.1976C102.956 11.0557 102.754 12.0889 102.754 13.2972C102.754 14.5012 102.956 15.5322 103.359 16.3903C103.761 17.2484 104.311 17.9073 105.007 18.367C105.703 18.8223 106.493 19.0499 107.378 19.0499C108.262 19.0499 109.052 18.8223 109.748 18.367C110.449 17.9116 111 17.2549 111.403 16.3968C111.806 15.5344 112.005 14.5012 112.001 13.2972ZM133.174 6.57257H134.402V15.4775C134.402 16.3925 134.188 17.2112 133.759 17.9335C133.33 18.6515 132.732 19.2185 131.966 19.6344C131.204 20.0459 130.318 20.2517 129.306 20.2517C128.299 20.2517 127.413 20.0437 126.647 19.6278C125.88 19.2119 125.283 18.645 124.854 17.927C124.425 17.209 124.21 16.3925 124.21 15.4775V6.57257H125.438V15.3921C125.438 16.1057 125.598 16.7427 125.918 17.3031C126.237 17.8591 126.686 18.2969 127.264 18.6165C127.846 18.9361 128.527 19.0959 129.306 19.0959C130.086 19.0959 130.766 18.9361 131.349 18.6165C131.931 18.2969 132.38 17.8591 132.695 17.3031C133.014 16.7427 133.174 16.1057 133.174 15.3921V6.57257ZM146.016 20.0219V6.57257H150.357C151.311 6.57257 152.108 6.7455 152.747 7.09136C153.391 7.43285 153.874 7.90787 154.198 8.51641C154.527 9.12058 154.691 9.81449 154.691 10.5982C154.691 11.3818 154.527 12.0736 154.198 12.6733C153.874 13.2731 153.393 13.7416 152.754 14.0787C152.114 14.4158 151.322 14.5843 150.376 14.5843H146.679V13.4614H150.343C151.044 13.4614 151.626 13.3454 152.09 13.1133C152.559 12.8813 152.907 12.5508 153.134 12.1217C153.366 11.6927 153.483 11.1848 153.483 10.5982C153.483 10.0115 153.366 9.49928 153.134 9.06147C152.902 8.61929 152.552 8.27781 152.084 8.03702C151.62 7.79623 151.033 7.67583 150.324 7.67583H147.244V20.0219H146.016ZM151.946 13.9539L155.256 20.0219H153.837L150.56 13.9539H151.946ZM178.972 20.0219V6.57257H180.2V18.9186H186.609V20.0219H178.972ZM207.921 13.2972C207.921 14.6982 207.671 15.9175 207.172 16.955C206.673 17.9883 205.986 18.7894 205.11 19.3586C204.239 19.9233 203.236 20.2057 202.102 20.2057C200.968 20.2057 199.964 19.9233 199.088 19.3586C198.217 18.7894 197.532 17.9883 197.033 16.955C196.538 15.9175 196.291 14.6982 196.291 13.2972C196.291 11.8962 196.538 10.6792 197.033 9.64594C197.532 8.60835 198.219 7.80717 199.095 7.24241C199.97 6.67326 200.973 6.38869 202.102 6.38869C203.236 6.38869 204.239 6.67326 205.11 7.24241C205.986 7.80717 206.673 8.60835 207.172 9.64594C207.671 10.6792 207.921 11.8962 207.921 13.2972ZM206.726 13.2972C206.726 12.0933 206.524 11.0622 206.121 10.2041C205.719 9.34167 205.169 8.68277 204.473 8.22746C203.777 7.77215 202.987 7.54449 202.102 7.54449C201.222 7.54449 200.434 7.77215 199.738 8.22746C199.042 8.68277 198.491 9.33948 198.083 10.1976C197.681 11.0557 197.479 12.0889 197.479 13.2972C197.479 14.5012 197.681 15.5322 198.083 16.3903C198.486 17.2484 199.036 17.9073 199.732 18.367C200.428 18.8223 201.218 19.0499 202.102 19.0499C202.987 19.0499 203.777 18.8223 204.473 18.367C205.174 17.9116 205.725 17.2549 206.128 16.3968C206.531 15.5344 206.73 14.5012 206.726 13.2972ZM229.409 6.57257V20.0219H228.214L220.268 8.75939H220.163V20.0219H218.935V6.57257H220.124L228.096 17.8482H228.201V6.57257H229.409ZM244.97 20.0219H241.03V6.57257H245.206C246.489 6.57257 247.586 6.83963 248.496 7.37375C249.411 7.90787 250.112 8.67402 250.598 9.67221C251.084 10.6704 251.327 11.8678 251.327 13.2644C251.327 14.6741 251.077 15.8846 250.578 16.8959C250.083 17.9029 249.361 18.6756 248.411 19.2141C247.465 19.7526 246.318 20.0219 244.97 20.0219ZM242.258 18.9186H244.898C246.053 18.9186 247.021 18.6909 247.8 18.2356C248.579 17.7803 249.164 17.1302 249.554 16.2852C249.943 15.4403 250.138 14.4333 250.138 13.2644C250.134 12.1042 249.941 11.106 249.56 10.2698C249.184 9.43361 248.623 8.79223 247.879 8.34567C247.139 7.89911 246.224 7.67583 245.134 7.67583H242.258V18.9186ZM273.374 13.2972C273.374 14.6982 273.124 15.9175 272.625 16.955C272.126 17.9883 271.439 18.7894 270.563 19.3586C269.692 19.9233 268.689 20.2057 267.555 20.2057C266.421 20.2057 265.417 19.9233 264.541 19.3586C263.67 18.7894 262.985 17.9883 262.485 16.955C261.991 15.9175 261.743 14.6982 261.743 13.2972C261.743 11.8962 261.991 10.6792 262.485 9.64594C262.985 8.60835 263.672 7.80717 264.548 7.24241C265.423 6.67326 266.426 6.38869 267.555 6.38869C268.689 6.38869 269.692 6.67326 270.563 7.24241C271.439 7.80717 272.126 8.60835 272.625 9.64594C273.124 10.6792 273.374 11.8962 273.374 13.2972ZM272.178 13.2972C272.178 12.0933 271.977 11.0622 271.574 10.2041C271.171 9.34167 270.622 8.68277 269.926 8.22746C269.23 7.77215 268.44 7.54449 267.555 7.54449C266.675 7.54449 265.887 7.77215 265.191 8.22746C264.495 8.68277 263.943 9.33948 263.536 10.1976C263.133 11.0557 262.932 12.0889 262.932 13.2972C262.932 14.5012 263.133 15.5322 263.536 16.3903C263.939 17.2484 264.488 17.9073 265.185 18.367C265.881 18.8223 266.671 19.0499 267.555 19.0499C268.44 19.0499 269.23 18.8223 269.926 18.367C270.626 17.9116 271.178 17.2549 271.581 16.3968C271.984 15.5344 272.183 14.5012 272.178 13.2972ZM294.862 6.57257V20.0219H293.667L285.721 8.75939H285.616V20.0219H284.388V6.57257H285.577L293.549 17.8482H293.654V6.57257H294.862Z" fill="#1A1A1A"/>
<path d="M101.607 35.4376H97.6647C97.5522 34.791 97.3449 34.2182 97.0427 33.7192C96.7405 33.2132 96.3645 32.7845 95.9147 32.4331C95.4649 32.0817 94.9519 31.8182 94.3756 31.6425C93.8064 31.4598 93.1914 31.3684 92.5308 31.3684C91.3571 31.3684 90.317 31.6636 89.4104 32.2539C88.5038 32.8372 87.794 33.6946 87.281 34.8261C86.7679 35.9506 86.5114 37.3245 86.5114 38.948C86.5114 40.5995 86.7679 41.991 87.281 43.1225C87.801 44.247 88.5108 45.0974 89.4104 45.6737C90.317 46.2429 91.3536 46.5275 92.5203 46.5275C93.1668 46.5275 93.7712 46.4432 94.3334 46.2745C94.9027 46.0988 95.4122 45.8423 95.862 45.505C96.3188 45.1677 96.7018 44.753 97.0111 44.2611C97.3273 43.7691 97.5452 43.2069 97.6647 42.5744L101.607 42.5954C101.46 43.6215 101.14 44.5843 100.648 45.4839C100.163 46.3835 99.527 47.1776 98.7399 47.8664C97.9528 48.5481 97.0321 49.0822 95.978 49.4687C94.9238 49.8482 93.7536 50.038 92.4675 50.038C90.57 50.038 88.8763 49.5987 87.3864 48.7202C85.8965 47.8418 84.7228 46.5732 83.8654 44.9146C83.008 43.2561 82.5793 41.2672 82.5793 38.948C82.5793 36.6218 83.0115 34.6329 83.876 32.9813C84.7404 31.3227 85.9176 30.0542 87.4075 29.1757C88.8974 28.2972 90.5841 27.858 92.4675 27.858C93.6693 27.858 94.7867 28.0267 95.8198 28.364C96.8529 28.7013 97.7736 29.1968 98.5818 29.8504C99.39 30.497 100.054 31.2911 100.574 32.2328C101.101 33.1676 101.446 34.2358 101.607 35.4376ZM109.642 49.7428V28.1532H113.553V37.2929H123.557V28.1532H127.478V49.7428H123.557V40.5714H113.553V49.7428H109.642ZM138.957 49.7428H134.783L142.384 28.1532H147.212L154.823 49.7428H150.648L144.882 32.5807H144.713L138.957 49.7428ZM139.095 41.2777H150.48V44.4192H139.095V41.2777ZM175.729 28.1532H179.64V42.2581C179.64 43.8042 179.274 45.1641 178.544 46.3378C177.82 47.5114 176.801 48.4286 175.486 49.0892C174.172 49.7428 172.637 50.0696 170.88 50.0696C169.116 50.0696 167.577 49.7428 166.262 49.0892C164.948 48.4286 163.929 47.5114 163.205 46.3378C162.481 45.1641 162.119 43.8042 162.119 42.2581V28.1532H166.03V41.9313C166.03 42.8309 166.227 43.6321 166.621 44.3348C167.021 45.0376 167.584 45.5893 168.307 45.9899C169.031 46.3835 169.889 46.5803 170.88 46.5803C171.871 46.5803 172.728 46.3835 173.452 45.9899C174.183 45.5893 174.745 45.0376 175.139 44.3348C175.532 43.6321 175.729 42.8309 175.729 41.9313V28.1532ZM188.344 49.7428V28.1532H202.175V31.4317H192.255V37.2929H201.226V40.5714H192.255V49.7428H188.344ZM210.191 49.7428V28.1532H224.021V31.4317H214.102V37.2929H223.073V40.5714H214.102V49.7428H210.191ZM232.037 49.7428V28.1532H246.079V31.4317H235.948V37.2929H245.352V40.5714H235.948V46.4643H246.164V49.7428H232.037ZM268.132 28.1532H272.043V42.2581C272.043 43.8042 271.677 45.1641 270.946 46.3378C270.222 47.5114 269.203 48.4286 267.889 49.0892C266.575 49.7428 265.039 50.0696 263.282 50.0696C261.518 50.0696 259.979 49.7428 258.665 49.0892C257.351 48.4286 256.332 47.5114 255.608 46.3378C254.884 45.1641 254.522 43.8042 254.522 42.2581V28.1532H258.433V41.9313C258.433 42.8309 258.63 43.6321 259.023 44.3348C259.424 45.0376 259.986 45.5893 260.71 45.9899C261.434 46.3835 262.291 46.5803 263.282 46.5803C264.273 46.5803 265.131 46.3835 265.855 45.9899C266.585 45.5893 267.148 45.0376 267.541 44.3348C267.935 43.6321 268.132 42.8309 268.132 41.9313V28.1532ZM280.746 49.7428V28.1532H288.843C290.501 28.1532 291.893 28.4413 293.017 29.0176C294.149 29.5939 295.003 30.4021 295.579 31.4422C296.162 32.4753 296.454 33.6806 296.454 35.058C296.454 36.4425 296.159 37.6443 295.568 38.6634C294.985 39.6754 294.124 40.459 292.986 41.0142C291.847 41.5623 290.448 41.8364 288.79 41.8364H283.023V38.5896H288.263C289.233 38.5896 290.027 38.456 290.645 38.189C291.264 37.9149 291.72 37.5178 292.016 36.9977C292.318 36.4707 292.469 35.8241 292.469 35.058C292.469 34.292 292.318 33.6384 292.016 33.0973C291.713 32.5491 291.253 32.1345 290.635 31.8533C290.016 31.5652 289.219 31.4211 288.242 31.4211H284.657V49.7428H280.746ZM291.9 39.96L297.244 49.7428H292.88L287.63 39.96H291.9Z" fill="#1A1A1A"/>
<path fill-rule="evenodd" clip-rule="evenodd" d="M32.6431 0.188477L33.5141 1.35399L48.1914 20.9957L48.7507 21.7442L48.09 22.4048L18.9512 51.5436L18.6351 51.8597H18.1881H7.39592H6.46542L6.32846 50.9394L0.932387 14.6777L0.451172 11.444L2.76297 13.7558L26.5057 37.4985L24.9795 39.0247L3.54852 17.5938L8.32642 49.7013H17.741L45.9031 21.5393L32.656 3.81152L19.6072 21.5345L31.0384 32.9658L29.5122 34.492L17.425 22.4048L16.769 21.7489L17.319 21.0018L31.7805 1.36013L32.6431 0.188477ZM64.0692 10.7113L63.4992 14.0529L57.2397 50.7462L57.0866 51.6439H56.1759H45.5996H45.1526L44.8365 51.3278L39.6562 46.1476L41.1825 44.6214L46.0466 49.4855H55.2652L60.8015 17.0315L28.3475 49.4855H37.6134V49.4856H37.8293L40.2036 51.644H37.1818V51.6439H25.742H23.1366L24.9789 49.8016L61.6722 13.1083L64.0692 10.7113Z" fill="#1A1A1A"/>
</svg>
