<svg width="54" height="53" viewBox="0 0 54 53" fill="none" xmlns="http://www.w3.org/2000/svg">
<path d="M41.9778 14.0903C42.7699 14.0903 43.4483 13.8141 44.0128 13.2618C44.5764 12.7104 44.8582 12.0472 44.8582 11.2722C44.8582 10.4973 44.5764 9.83361 44.0128 9.28127C43.4483 8.72987 42.7699 8.45417 41.9778 8.45417C41.1857 8.45417 40.5078 8.72987 39.9442 9.28127C39.3796 9.83361 39.0974 10.4973 39.0974 11.2722C39.0974 12.0472 39.3796 12.7104 39.9442 13.2618C40.5078 13.8141 41.1857 14.0903 41.9778 14.0903ZM41.9778 27.6522C41.7858 27.6522 41.5937 27.6169 41.4017 27.5465C41.2097 27.476 41.0417 27.3821 40.8976 27.2647C37.3931 24.2353 34.7767 21.4233 33.0484 18.8288C31.3202 16.2334 30.4561 13.8085 30.4561 11.554C30.4561 8.03146 31.6145 5.22515 33.9313 3.13509C36.2472 1.04503 38.9293 0 41.9778 0C45.0263 0 47.7084 1.04503 50.0243 3.13509C52.3411 5.22515 53.4995 8.03146 53.4995 11.554C53.4995 13.8085 52.6354 16.2334 50.9071 18.8288C49.1789 21.4233 46.5625 24.2353 43.058 27.2647C42.9139 27.3821 42.7459 27.476 42.5539 27.5465C42.3619 27.6169 42.1698 27.6522 41.9778 27.6522Z" fill="white"/>
<path fill-rule="evenodd" clip-rule="evenodd" d="M40.1922 29.8422C40.4035 29.9185 40.6147 29.9566 40.8259 29.9566C40.9375 29.9566 41.049 29.946 41.1606 29.9247L41.9783 32.2609V50.6957C41.9783 51.3486 41.757 51.8955 41.3146 52.3364C40.8737 52.7788 40.3268 53.0001 39.6739 53.0001H37.3696C36.7167 53.0001 36.1698 52.7788 35.7289 52.3364C35.2864 51.8955 35.0652 51.3486 35.0652 50.6957V48.3914H7.41304V50.6957C7.41304 51.3486 7.19259 51.8955 6.7517 52.3364C6.30926 52.7788 5.76159 53.0001 5.1087 53.0001H2.80435C2.15145 53.0001 1.60455 52.7788 1.16365 52.3364C0.721218 51.8955 0.5 51.3486 0.5 50.6957V32.2609L5.33913 18.4348C5.56956 17.7435 5.98281 17.1867 6.57887 16.7642C7.17339 16.3417 7.83551 16.1305 8.56522 16.1305L28.7983 16.1305C29.2724 17.5023 30.0076 18.9248 31.0037 20.398C31.0803 20.5114 31.1586 20.6251 31.2384 20.7392H9.37174L6.95217 27.6522H35.5261L34.4871 24.6836C35.9481 26.2397 37.665 27.8574 39.6378 29.5369C39.7962 29.6641 39.981 29.7658 40.1922 29.8422ZM13.3168 40.469C12.6454 41.1419 11.8297 41.4783 10.8696 41.4783C9.90942 41.4783 9.09368 41.1419 8.42235 40.469C7.74948 39.7977 7.41304 38.9819 7.41304 38.0218C7.41304 37.0617 7.74948 36.2459 8.42235 35.5746C9.09368 34.9017 9.90942 34.5653 10.8696 34.5653C11.8297 34.5653 12.6454 34.9017 13.3168 35.5746C13.9897 36.2459 14.3261 37.0617 14.3261 38.0218C14.3261 38.9819 13.9897 39.7977 13.3168 40.469ZM34.0559 40.469C33.3846 41.1419 32.5688 41.4783 31.6087 41.4783C30.6486 41.4783 29.8328 41.1419 29.1615 40.469C28.4886 39.7977 28.1522 38.9819 28.1522 38.0218C28.1522 37.0617 28.4886 36.2459 29.1615 35.5746C29.8328 34.9017 30.6486 34.5653 31.6087 34.5653C32.5688 34.5653 33.3846 34.9017 34.0559 35.5746C34.7288 36.2459 35.0652 37.0617 35.0652 38.0218C35.0652 38.9819 34.7288 39.7977 34.0559 40.469Z" fill="white"/>
</svg>
