<svg width="53" height="53" viewBox="0 0 53 53" fill="none" xmlns="http://www.w3.org/2000/svg">
<path d="M41.4778 14.0903C42.2699 14.0903 42.9483 13.8141 43.5128 13.2618C44.0764 12.7104 44.3582 12.0472 44.3582 11.2722C44.3582 10.4973 44.0764 9.83361 43.5128 9.28127C42.9483 8.72987 42.2699 8.45417 41.4778 8.45417C40.6857 8.45417 40.0078 8.72987 39.4442 9.28127C38.8796 9.83361 38.5974 10.4973 38.5974 11.2722C38.5974 12.0472 38.8796 12.7104 39.4442 13.2618C40.0078 13.8141 40.6857 14.0903 41.4778 14.0903ZM41.4778 27.6522C41.2858 27.6522 41.0937 27.6169 40.9017 27.5465C40.7097 27.476 40.5417 27.3821 40.3976 27.2647C36.8931 24.2353 34.2767 21.4233 32.5484 18.8288C30.8202 16.2334 29.9561 13.8085 29.9561 11.554C29.9561 8.03146 31.1145 5.22515 33.4313 3.13509C35.7472 1.04503 38.4293 0 41.4778 0C44.5263 0 47.2084 1.04503 49.5243 3.13509C51.8411 5.22515 52.9995 8.03146 52.9995 11.554C52.9995 13.8085 52.1354 16.2334 50.4071 18.8288C48.6789 21.4233 46.0625 24.2353 42.558 27.2647C42.4139 27.3821 42.2459 27.476 42.0539 27.5465C41.8619 27.6169 41.6698 27.6522 41.4778 27.6522Z" fill="black"/>
<path fill-rule="evenodd" clip-rule="evenodd" d="M39.6922 29.842C39.9035 29.9184 40.1147 29.9565 40.3259 29.9565C40.4375 29.9565 40.549 29.9459 40.6606 29.9246L41.4783 32.2608V50.6956C41.4783 51.3485 41.257 51.8954 40.8146 52.3363C40.3737 52.7787 39.8268 52.9999 39.1739 52.9999H36.8696C36.2167 52.9999 35.6698 52.7787 35.2289 52.3363C34.7864 51.8954 34.5652 51.3485 34.5652 50.6956V48.3912H6.91304V50.6956C6.91304 51.3485 6.69259 51.8954 6.2517 52.3363C5.80926 52.7787 5.26159 52.9999 4.6087 52.9999H2.30435C1.65145 52.9999 1.10455 52.7787 0.663652 52.3363C0.221218 51.8954 0 51.3485 0 50.6956V32.2608L4.83913 18.4347C5.06956 17.7434 5.48281 17.1865 6.07887 16.7641C6.67339 16.3416 7.33551 16.1304 8.06522 16.1304L28.2983 16.1304C28.7724 17.5022 29.5076 18.9247 30.5037 20.3979C30.5803 20.5112 30.6586 20.625 30.7384 20.7391H8.87174L6.45217 27.6521H35.0261L33.9871 24.6835C35.4481 26.2395 37.165 27.8573 39.1378 29.5368C39.2962 29.664 39.481 29.7657 39.6922 29.842ZM12.8168 40.4689C12.1454 41.1418 11.3297 41.4782 10.3696 41.4782C9.40942 41.4782 8.59368 41.1418 7.92235 40.4689C7.24948 39.7976 6.91304 38.9818 6.91304 38.0217C6.91304 37.0615 7.24948 36.2458 7.92235 35.5745C8.59368 34.9016 9.40942 34.5652 10.3696 34.5652C11.3297 34.5652 12.1454 34.9016 12.8168 35.5745C13.4897 36.2458 13.8261 37.0615 13.8261 38.0217C13.8261 38.9818 13.4897 39.7976 12.8168 40.4689ZM33.5559 40.4689C32.8846 41.1418 32.0688 41.4782 31.1087 41.4782C30.1486 41.4782 29.3328 41.1418 28.6615 40.4689C27.9886 39.7976 27.6522 38.9818 27.6522 38.0217C27.6522 37.0615 27.9886 36.2458 28.6615 35.5745C29.3328 34.9016 30.1486 34.5652 31.1087 34.5652C32.0688 34.5652 32.8846 34.9016 33.5559 35.5745C34.2288 36.2458 34.5652 37.0615 34.5652 38.0217C34.5652 38.9818 34.2288 39.7976 33.5559 40.4689Z" fill="black"/>
</svg>
