<svg width="299" height="53" viewBox="0 0 299 53" fill="none" xmlns="http://www.w3.org/2000/svg">
<path d="M81.5239 6.57269H82.9424L86.9286 12.9558H87.0468L91.033 6.57269H92.4514L87.5984 14.197V20.022H86.3769V14.197L81.5239 6.57269ZM113.196 13.2973C113.196 14.6983 112.947 15.9176 112.448 16.9552C111.949 17.9884 111.261 18.7896 110.386 19.3587C109.515 19.9235 108.512 20.2058 107.378 20.2058C106.244 20.2058 105.239 19.9235 104.364 19.3587C103.493 18.7896 102.807 17.9884 102.308 16.9552C101.814 15.9176 101.566 14.6983 101.566 13.2973C101.566 11.8964 101.814 10.6793 102.308 9.64606C102.807 8.60847 103.495 7.80729 104.37 7.24253C105.246 6.67339 106.249 6.38881 107.378 6.38881C108.512 6.38881 109.515 6.67339 110.386 7.24253C111.261 7.80729 111.949 8.60847 112.448 9.64606C112.947 10.6793 113.196 11.8964 113.196 13.2973ZM112.001 13.2973C112.001 12.0934 111.8 11.0624 111.397 10.2043C110.994 9.34179 110.445 8.6829 109.749 8.22758C109.053 7.77227 108.262 7.54461 107.378 7.54461C106.498 7.54461 105.71 7.77227 105.014 8.22758C104.318 8.6829 103.766 9.3396 103.359 10.1977C102.956 11.0558 102.755 12.089 102.755 13.2973C102.755 14.5013 102.956 15.5323 103.359 16.3904C103.762 17.2485 104.311 17.9074 105.007 18.3671C105.703 18.8224 106.494 19.0501 107.378 19.0501C108.262 19.0501 109.053 18.8224 109.749 18.3671C110.449 17.9118 111.001 17.2551 111.404 16.397C111.806 15.5345 112.006 14.5013 112.001 13.2973ZM133.175 6.57269H134.403V15.4776C134.403 16.3926 134.188 17.2113 133.759 17.9337C133.33 18.6517 132.733 19.2186 131.966 19.6345C131.205 20.0461 130.318 20.2518 129.307 20.2518C128.3 20.2518 127.413 20.0439 126.647 19.628C125.881 19.212 125.283 18.6451 124.854 17.9271C124.425 17.2091 124.211 16.3926 124.211 15.4776V6.57269H125.439V15.3922C125.439 16.1058 125.599 16.7428 125.918 17.3032C126.238 17.8592 126.686 18.297 127.264 18.6166C127.847 18.9362 128.527 19.096 129.307 19.096C130.086 19.096 130.767 18.9362 131.349 18.6166C131.931 18.297 132.38 17.8592 132.695 17.3032C133.015 16.7428 133.175 16.1058 133.175 15.3922V6.57269ZM146.016 20.022V6.57269H150.357C151.312 6.57269 152.108 6.74562 152.747 7.09149C153.391 7.43297 153.875 7.90799 154.199 8.51653C154.527 9.1207 154.691 9.81462 154.691 10.5983C154.691 11.3819 154.527 12.0737 154.199 12.6735C153.875 13.2733 153.393 13.7417 152.754 14.0788C152.115 14.4159 151.322 14.5845 150.377 14.5845H146.68V13.4615H150.344C151.044 13.4615 151.627 13.3455 152.091 13.1135C152.559 12.8814 152.907 12.5509 153.135 12.1218C153.367 11.6928 153.483 11.1849 153.483 10.5983C153.483 10.0116 153.367 9.4994 153.135 9.0616C152.903 8.61942 152.553 8.27793 152.084 8.03714C151.62 7.79635 151.034 7.67595 150.324 7.67595H147.244V20.022H146.016ZM151.946 13.954L155.256 20.022H153.838L150.561 13.954H151.946ZM178.972 20.022V6.57269H180.2V18.9187H186.61V20.022H178.972ZM207.921 13.2973C207.921 14.6983 207.672 15.9176 207.173 16.9552C206.674 17.9884 205.986 18.7896 205.111 19.3587C204.239 19.9235 203.237 20.2058 202.103 20.2058C200.969 20.2058 199.964 19.9235 199.089 19.3587C198.217 18.7896 197.532 17.9884 197.033 16.9552C196.538 15.9176 196.291 14.6983 196.291 13.2973C196.291 11.8964 196.538 10.6793 197.033 9.64606C197.532 8.60847 198.22 7.80729 199.095 7.24253C199.971 6.67339 200.973 6.38881 202.103 6.38881C203.237 6.38881 204.239 6.67339 205.111 7.24253C205.986 7.80729 206.674 8.60847 207.173 9.64606C207.672 10.6793 207.921 11.8964 207.921 13.2973ZM206.726 13.2973C206.726 12.0934 206.525 11.0624 206.122 10.2043C205.719 9.34179 205.17 8.6829 204.474 8.22758C203.777 7.77227 202.987 7.54461 202.103 7.54461C201.223 7.54461 200.435 7.77227 199.739 8.22758C199.043 8.6829 198.491 9.3396 198.084 10.1977C197.681 11.0558 197.48 12.089 197.48 13.2973C197.48 14.5013 197.681 15.5323 198.084 16.3904C198.487 17.2485 199.036 17.9074 199.732 18.3671C200.428 18.8224 201.219 19.0501 202.103 19.0501C202.987 19.0501 203.777 18.8224 204.474 18.3671C205.174 17.9118 205.726 17.2551 206.128 16.397C206.531 15.5345 206.73 14.5013 206.726 13.2973ZM229.41 6.57269V20.022H228.215L220.269 8.75951H220.164V20.022H218.936V6.57269H220.124L228.097 17.8483H228.202V6.57269H229.41ZM244.97 20.022H241.03V6.57269H245.207C246.489 6.57269 247.586 6.83975 248.497 7.37387C249.412 7.90799 250.112 8.67414 250.598 9.67233C251.084 10.6705 251.327 11.8679 251.327 13.2645C251.327 14.6742 251.078 15.8847 250.579 16.8961C250.084 17.903 249.361 18.6757 248.411 19.2142C247.466 19.7527 246.319 20.022 244.97 20.022ZM242.258 18.9187H244.898C246.054 18.9187 247.021 18.6911 247.801 18.2357C248.58 17.7804 249.164 17.1303 249.554 16.2853C249.944 15.4404 250.139 14.4334 250.139 13.2645C250.134 12.1043 249.942 11.1061 249.561 10.2699C249.184 9.43373 248.624 8.79235 247.879 8.34579C247.14 7.89923 246.225 7.67595 245.134 7.67595H242.258V18.9187ZM273.374 13.2973C273.374 14.6983 273.125 15.9176 272.625 16.9552C272.126 17.9884 271.439 18.7896 270.563 19.3587C269.692 19.9235 268.69 20.2058 267.556 20.2058C266.422 20.2058 265.417 19.9235 264.541 19.3587C263.67 18.7896 262.985 17.9884 262.486 16.9552C261.991 15.9176 261.744 14.6983 261.744 13.2973C261.744 11.8964 261.991 10.6793 262.486 9.64606C262.985 8.60847 263.672 7.80729 264.548 7.24253C265.424 6.67339 266.426 6.38881 267.556 6.38881C268.69 6.38881 269.692 6.67339 270.563 7.24253C271.439 7.80729 272.126 8.60847 272.625 9.64606C273.125 10.6793 273.374 11.8964 273.374 13.2973ZM272.179 13.2973C272.179 12.0934 271.978 11.0624 271.575 10.2043C271.172 9.34179 270.623 8.6829 269.926 8.22758C269.23 7.77227 268.44 7.54461 267.556 7.54461C266.676 7.54461 265.888 7.77227 265.192 8.22758C264.495 8.6829 263.944 9.3396 263.537 10.1977C263.134 11.0558 262.933 12.089 262.933 13.2973C262.933 14.5013 263.134 15.5323 263.537 16.3904C263.939 17.2485 264.489 17.9074 265.185 18.3671C265.881 18.8224 266.671 19.0501 267.556 19.0501C268.44 19.0501 269.23 18.8224 269.926 18.3671C270.627 17.9118 271.179 17.2551 271.581 16.397C271.984 15.5345 272.183 14.5013 272.179 13.2973ZM294.863 6.57269V20.022H293.668L285.721 8.75951H285.616V20.022H284.388V6.57269H285.577L293.549 17.8483H293.654V6.57269H294.863Z" fill="white"/>
<path d="M101.608 35.4374H97.6651C97.5527 34.7909 97.3454 34.2181 97.0432 33.7191C96.741 33.2131 96.365 32.7844 95.9152 32.433C95.4654 32.0816 94.9524 31.8181 94.3761 31.6424C93.8068 31.4597 93.1919 31.3683 92.5313 31.3683C91.3576 31.3683 90.3175 31.6635 89.4109 32.2538C88.5043 32.8371 87.7945 33.6945 87.2815 34.826C86.7684 35.9505 86.5119 37.3244 86.5119 38.9479C86.5119 40.5994 86.7684 41.9909 87.2815 43.1224C87.8015 44.2469 88.5113 45.0972 89.4109 45.6735C90.3175 46.2428 91.3541 46.5274 92.5207 46.5274C93.1673 46.5274 93.7717 46.4431 94.3339 46.2744C94.9032 46.0987 95.4127 45.8422 95.8625 45.5049C96.3193 45.1675 96.7023 44.7529 97.0116 44.2609C97.3278 43.769 97.5457 43.2068 97.6651 42.5742L101.608 42.5953C101.46 43.6214 101.14 44.5842 100.648 45.4838C100.164 46.3834 99.5275 47.1775 98.7404 47.8662C97.9533 48.5479 97.0326 49.0821 95.9785 49.4686C94.9243 49.8481 93.7541 50.0378 92.468 50.0378C90.5705 50.0378 88.8768 49.5986 87.3869 48.7201C85.897 47.8416 84.7233 46.5731 83.8659 44.9145C83.0085 43.2559 82.5798 41.2671 82.5798 38.9479C82.5798 36.6216 83.012 34.6327 83.8765 32.9812C84.7409 31.3226 85.918 30.0541 87.408 29.1756C88.8979 28.2971 90.5846 27.8579 92.468 27.8579C93.6698 27.8579 94.7872 28.0265 95.8203 28.3639C96.8534 28.7012 97.7741 29.1967 98.5823 29.8503C99.3905 30.4968 100.055 31.291 100.575 32.2327C101.102 33.1674 101.446 34.2357 101.608 35.4374ZM109.642 49.7427V28.153H113.553V37.2928H123.557V28.153H127.479V49.7427H123.557V40.5713H113.553V49.7427H109.642ZM138.958 49.7427H134.783L142.384 28.153H147.212L154.823 49.7427H150.649L144.882 32.5806H144.714L138.958 49.7427ZM139.095 41.2776H150.48V44.4191H139.095V41.2776ZM175.729 28.153H179.64V42.258C179.64 43.8041 179.275 45.164 178.544 46.3377C177.82 47.5113 176.801 48.4285 175.487 49.0891C174.173 49.7427 172.637 50.0695 170.88 50.0695C169.116 50.0695 167.577 49.7427 166.263 49.0891C164.949 48.4285 163.93 47.5113 163.206 46.3377C162.482 45.164 162.12 43.8041 162.12 42.258V28.153H166.031V41.9312C166.031 42.8308 166.228 43.6319 166.621 44.3347C167.022 45.0375 167.584 45.5892 168.308 45.9898C169.032 46.3834 169.889 46.5801 170.88 46.5801C171.871 46.5801 172.728 46.3834 173.452 45.9898C174.183 45.5892 174.745 45.0375 175.139 44.3347C175.533 43.6319 175.729 42.8308 175.729 41.9312V28.153ZM188.344 49.7427V28.153H202.175V31.4315H192.255V37.2928H201.226V40.5713H192.255V49.7427H188.344ZM210.191 49.7427V28.153H224.022V31.4315H214.102V37.2928H223.073V40.5713H214.102V49.7427H210.191ZM232.038 49.7427V28.153H246.08V31.4315H235.949V37.2928H245.352V40.5713H235.949V46.4642H246.164V49.7427H232.038ZM268.132 28.153H272.043V42.258C272.043 43.8041 271.678 45.164 270.947 46.3377C270.223 47.5113 269.204 48.4285 267.89 49.0891C266.575 49.7427 265.04 50.0695 263.283 50.0695C261.519 50.0695 259.98 49.7427 258.666 49.0891C257.351 48.4285 256.332 47.5113 255.608 46.3377C254.885 45.164 254.523 43.8041 254.523 42.258V28.153H258.434V41.9312C258.434 42.8308 258.63 43.6319 259.024 44.3347C259.425 45.0375 259.987 45.5892 260.711 45.9898C261.435 46.3834 262.292 46.5801 263.283 46.5801C264.274 46.5801 265.131 46.3834 265.855 45.9898C266.586 45.5892 267.148 45.0375 267.542 44.3347C267.935 43.6319 268.132 42.8308 268.132 41.9312V28.153ZM280.747 49.7427V28.153H288.843C290.502 28.153 291.893 28.4412 293.018 29.0175C294.149 29.5938 295.003 30.402 295.579 31.4421C296.163 32.4752 296.454 33.6805 296.454 35.0579C296.454 36.4424 296.159 37.6442 295.569 38.6632C294.985 39.6752 294.125 40.4589 292.986 41.0141C291.847 41.5622 290.449 41.8363 288.79 41.8363H283.024V38.5894H288.263C289.233 38.5894 290.027 38.4559 290.646 38.1888C291.264 37.9148 291.721 37.5177 292.016 36.9976C292.318 36.4705 292.469 35.824 292.469 35.0579C292.469 34.2919 292.318 33.6383 292.016 33.0971C291.714 32.549 291.254 32.1343 290.635 31.8532C290.017 31.5651 289.219 31.421 288.242 31.421H284.658V49.7427H280.747ZM291.9 39.9599L297.245 49.7427H292.881L287.631 39.9599H291.9Z" fill="white"/>
<path d="M25.7427 38.2616L2 14.5189L7.39608 50.7805H18.1882L47.327 21.6417L32.6497 2L18.1882 21.6417L30.2754 33.7289" stroke="white" stroke-width="2.15843"/>
<path d="M37.614 50.5649H25.7427L62.436 13.8716L56.1765 50.5649H45.6002L40.42 45.3847" stroke="white" stroke-width="2.15843"/>
<path d="M37.8301 49.4858L40.2044 51.6443H37.1826V49.4858H37.8301Z" fill="#FDC65C"/>
</svg>
