<svg width="182" height="81" viewBox="0 0 182 81" fill="none" xmlns="http://www.w3.org/2000/svg">
<path d="M15.9172 20.551H26.6228V38.0863C23.048 38.8106 20.3105 39.1775 17.3095 39.1775C5.56916 39.1775 1.42993 32.4513 1.42993 21.3788C1.42993 9.47857 7.16841 2.75232 18.6077 2.75232C20.0565 2.75232 22.794 2.8558 26.2089 3.3732V14.5962H23.7253L22.3236 10.3064C20.9784 6.22363 19.3791 4.20105 16.8391 4.20105C12.4459 4.20105 10.1129 10.1465 10.1129 21.2754C10.1129 32.4513 11.0442 37.7288 16.7827 37.7288C17.5635 37.7288 18.4854 37.6253 19.3697 37.3713V24.3233L15.9078 21.9433V20.551H15.9172ZM26.4158 67.6253C26.4158 74.662 21.6087 78.6978 13.1233 78.6978C10.7996 78.6978 7.38478 78.3403 4.17687 77.8135V64.0599H6.66041L7.69522 67.3149C10.0188 74.8125 11.6745 77.2961 14.6284 77.2961C17.7328 77.2961 19.953 74.5585 19.953 70.9367C19.953 67.9922 18.5607 65.9226 15.5598 64.3139L10.3857 61.52C6.39701 59.4033 4.22391 56.0919 4.22391 52.0562C4.22391 45.9508 9.23802 42.282 17.4694 42.282C19.3321 42.282 21.5052 42.4419 24.9671 42.9028V54.1258H22.4836L21.0913 49.836C19.6896 45.2829 18.1938 43.6272 15.4563 43.6272C12.3989 43.6272 10.5927 45.5933 10.5927 48.4344C10.5927 50.9649 11.9944 52.7805 14.7319 54.3328L19.953 57.2772C24.3462 59.7608 26.4158 63.0722 26.4158 67.6253ZM49.2851 75.7533L50.3199 77.3055V78.0863H42.4083L42.0414 75.0853C41.2136 77.3619 39.0405 78.7072 36.2465 78.7072C32.1073 78.7072 29.5202 76.1201 29.5202 71.8774C29.5202 67.7382 31.8439 65.0007 38.984 62.2067L42.032 61.0214V57.1455C42.032 53.7307 41.4111 52.3384 39.5014 52.3384C37.9492 52.3384 37.0743 53.1662 35.5692 56.9386L33.8664 61.1625H31.5428V52.7241C34.5908 51.7928 37.6482 51.1719 40.2822 51.1719C46.1242 51.1719 49.2851 53.9659 49.2851 59.0364V75.7533ZM52.2766 25.4146C52.2766 34.2105 47.5729 39.1775 41.5146 39.1775C35.4657 39.1775 30.762 34.2105 30.762 25.4146C30.762 16.6187 35.4657 11.6517 41.524 11.6517C47.5729 11.6517 52.2766 16.6187 52.2766 25.4146ZM42.0414 71.4071V62.4607L41.063 62.8746C38.0057 64.1164 36.8674 66.9104 36.8674 70.9931C36.8674 74.0505 37.5917 75.8003 39.2945 75.8003C40.9972 75.8003 42.0414 74.1446 42.0414 71.4071ZM44.6755 25.4146C44.6755 15.4804 43.8476 12.8464 41.524 12.8464C39.2004 12.8464 38.3725 15.4804 38.3725 25.4146C38.3725 35.3487 39.2004 37.9828 41.524 37.9828C43.8476 37.9828 44.6755 35.3487 44.6755 25.4146ZM70.6491 71.6611L71.5804 72.1314C69.9248 76.8915 67.8081 78.6978 63.7159 78.6978C57.0461 78.6978 53.3208 73.6836 53.3208 64.9348C53.3208 56.1954 57.667 51.1719 64.7507 51.1719C66.6604 51.1719 69.2004 51.4823 71.3735 52.3572V61.1531H68.9464L67.968 57.8417C66.6698 53.4485 65.9549 52.3102 64.6567 52.3102C62.587 52.3102 60.9313 55.0007 60.9313 65.2453C60.9313 73.4673 62.1731 76.4682 65.3246 76.4682C67.4412 76.4776 69.2474 75.1324 70.6491 71.6611ZM64.9012 38.5566H55.588V37.7852L56.6228 36.233V7.36191L55.588 5.8097V5.02889L63.8664 4.40801V36.2236L64.9012 37.7758V38.5566ZM77.6294 39.1775C71.9379 39.1775 68.5231 34.0035 68.5231 25.1606C68.5231 16.3647 72.0884 11.6611 77.5729 11.6611C80.3669 11.6611 81.9191 12.7429 82.587 14.916V7.36191L81.5522 5.8097V5.02889L89.8307 4.40801V36.2236L90.8655 37.7758V38.5472H83.5184L82.9539 34.615C82.1355 37.9828 80.5833 39.1775 77.6294 39.1775ZM95.7855 75.7533L96.8203 77.3055V78.0863H87.5071V77.3055L88.5419 75.7533V57.1267C88.5419 54.9066 87.874 53.5614 86.2653 53.5614C84.3462 53.5614 82.9539 55.17 82.9539 58.3215V75.7533L83.9887 77.3055V78.0863H74.6755V77.3055L75.7103 75.7533V46.8821L74.6755 45.3299V44.5585L82.9539 43.9376V54.6432C83.8852 52.4231 86.0019 51.1813 89.0028 51.1813C93.2455 51.1813 95.7761 53.8718 95.7761 59.0929V75.7533H95.7855ZM76.1336 25.2547C76.1336 34.5679 76.9614 37.409 79.238 37.409C82.079 37.409 82.5964 33.3262 82.5964 25.1512C82.5964 17.2396 82.032 13.3074 79.2851 13.3074C76.9614 13.3074 76.1336 16.1013 76.1336 25.2547ZM128.072 36.2236L129.106 37.7758V38.5472H119.793V37.7758L120.828 36.2236V17.0327C120.828 15.17 120.207 14.0317 118.758 14.0317C116.952 14.0317 115.503 15.6404 115.503 18.7354V36.2236L116.538 37.7758V38.5472H107.225V37.7758L108.26 36.2236V17.0327C108.26 15.17 107.639 14.0317 106.19 14.0317C104.384 14.0317 102.935 15.6404 102.935 18.7354V36.2236L103.97 37.7758V38.5472H94.6567V37.7758L95.6915 36.2236V15.17L94.6567 13.9282V13.1568L102.107 12.2725H102.728L102.935 15.17C103.81 12.8934 105.983 11.6517 108.937 11.6517C112.088 11.6517 114.158 13.2039 115.089 15.9979C115.861 13.3074 118.297 11.6517 121.402 11.6517C125.484 11.6517 128.072 14.3422 128.072 19.5632V36.2236ZM118.401 70.4757C118.401 74.9724 115.503 78.6978 108.523 78.6978C106.717 78.6978 104.28 78.4908 100.508 77.8135V68.1992H102.625L103.293 70.2688C104.948 75.5463 106.548 77.5124 109.088 77.5124C111.468 77.5124 113.02 75.8003 113.02 73.1662C113.02 70.9931 111.929 69.4974 109.351 68.0957L104.901 65.7156C102.06 64.1634 100.508 61.7363 100.508 58.7354C100.508 54.0317 104.186 51.1813 110.282 51.1813C112.041 51.1813 114.318 51.4353 116.802 51.9527V59.5068H114.685L113.594 56.7598C112.352 53.4485 111.167 52.3666 109.2 52.3666C107.084 52.3666 105.842 53.6084 105.842 55.678C105.842 57.4372 106.877 58.6225 109.407 60.0712L113.801 62.5548C116.792 64.2669 118.401 66.694 118.401 70.4757ZM151.872 36.2236L152.907 37.7758V38.5472H144.995L144.638 35.5463C143.81 37.8229 141.637 39.1681 138.843 39.1681C134.704 39.1681 132.117 36.5811 132.117 32.3384C132.117 28.1992 134.44 25.4616 141.58 22.6677L144.628 21.4823V17.6065C144.628 14.1916 144.008 12.7994 142.098 12.7994C140.546 12.7994 139.671 13.6272 138.166 17.3995L136.463 21.6423H134.13V13.2133C137.187 12.282 140.235 11.6611 142.869 11.6611C148.711 11.6611 151.872 14.455 151.872 19.5256V36.2236ZM144.628 31.8774V22.9311L143.65 23.345C140.602 24.5867 139.464 27.3807 139.464 31.4635C139.464 34.5209 140.188 36.2801 141.891 36.2801C143.594 36.2801 144.628 34.6244 144.628 31.8774ZM178.457 37.7758V38.5472H169.144V37.7758L170.179 36.2236V17.5971C170.179 15.3676 169.511 14.0317 167.902 14.0317C165.983 14.0317 164.591 15.6404 164.591 18.7918V36.2236L165.626 37.7758V38.5472H156.312V37.7758L157.347 36.2236V15.17L156.312 13.9282V13.1568L163.763 12.2725H164.384L164.591 15.17C165.466 12.8934 167.592 11.6517 170.64 11.6517C174.882 11.6517 177.413 14.3422 177.413 19.5632V36.2236L178.457 37.7758Z" fill="#07B5FF"/>
</svg>
