<svg width="147" height="81" viewBox="0 0 147 81" fill="none" xmlns="http://www.w3.org/2000/svg">
<g clip-path="url(#clip0_208_3029)">
<path d="M54.5526 59.4495L58.1315 60.081V61.8705H41.6052V60.081L45.1842 59.4495V41.9758H28.5526V59.4495L32.1315 60.081V61.8705H15.6052V60.081L19.1842 59.4495V22.8179L15.6052 22.1863V20.3968H32.1315V22.1863L28.5526 22.8179V39.3442H45.0789V22.8179L41.5 22.1863V20.3968H58.0263V22.1863L54.4473 22.8179V59.4495H54.5526ZM77.6052 44.6074V59.3442L81.1842 59.9758V61.7653H64.6579V59.9758L68.2368 59.3442V22.8179L64.6579 22.1863V20.3968H84.1315C92.9736 20.3968 97.7105 25.1337 97.7105 31.66C97.7105 37.5547 93.6052 44.6074 81.1842 44.6074H77.6052ZM80.0263 41.9758C85.921 41.9758 88.0263 37.4495 88.0263 32.1863C88.0263 27.4495 86.5526 23.0284 81.8158 23.0284H77.7105V41.9758H80.0263ZM103.921 47.8705H106.026L107.079 55.4495C108.974 57.1337 111.921 59.0284 115.605 59.0284C119.184 59.0284 122.553 56.8179 122.553 52.5021C122.553 48.9232 119.816 46.3968 115.395 44.5021C109.395 41.9758 103.71 38.7126 103.71 31.5547C103.71 23.9758 109.921 19.7653 118.026 19.7653C121.605 19.7653 126.132 20.6074 129.395 22.3968L129.71 33.3442H127.605L126.553 26.1863C125.613 25.175 124.472 24.3716 123.203 23.8277C121.934 23.2839 120.565 23.0116 119.184 23.0284C117.184 23.0284 113.289 24.1863 113.289 28.6074C113.289 31.2389 114.763 33.66 118.974 35.4495C124.868 37.7653 131.71 41.66 131.71 49.3442C131.71 58.1863 124.763 62.2916 116.868 62.2916C112.658 62.2916 107.5 61.1337 104.237 59.3442L103.921 47.8705Z" fill="#23416B"/>
<path d="M8.34204 4.92322H139.079ZM8.34204 77.3443H139.079Z" fill="#23416B"/>
<path d="M8.34204 4.92322H139.079M8.34204 77.3443H139.079" stroke="#23416B" stroke-width="3.68421" stroke-miterlimit="10"/>
</g>
<defs>
<clipPath id="clip0_208_3029">
<rect width="145.352" height="80" fill="white" transform="translate(0.823975 0.607422)"/>
</clipPath>
</defs>
</svg>
