<svg width="132" height="77" viewBox="0 0 132 77" fill="none" xmlns="http://www.w3.org/2000/svg">
<rect x="1" y="12" width="130" height="53" fill="#23416B"/>
<path d="M46.7286 56.842L50.3076 57.4736V59.2631H33.7813V57.4736L37.3602 56.842V39.3684H20.7286V56.842L24.3076 57.4736V59.2631H7.78125V57.4736L11.3602 56.842V20.2105L7.78125 19.5789V17.7894H24.3076V19.5789L20.7286 20.2105V36.7368H37.2549V20.2105L33.676 19.5789V17.7894H50.2023V19.5789L46.6234 20.2105V56.842H46.7286ZM69.7813 41.9999V56.7368L73.3602 57.3684V59.1578H56.8339V57.3684L60.4128 56.7368V20.2105L56.8339 19.5789V17.7894H76.3076C85.1497 17.7894 89.8865 22.5263 89.8865 29.0526C89.8865 34.9473 85.7813 41.9999 73.3602 41.9999H69.7813ZM72.2023 39.3684C78.097 39.3684 80.2023 34.842 80.2023 29.5789C80.2023 24.842 78.7286 20.421 73.9918 20.421H69.8865V39.3684H72.2023ZM96.097 45.2631H98.2023L99.2549 52.842C101.15 54.5263 104.097 56.421 107.781 56.421C111.36 56.421 114.729 54.2105 114.729 49.8947C114.729 46.3157 111.992 43.7894 107.571 41.8947C101.571 39.3684 95.8865 36.1052 95.8865 28.9473C95.8865 21.3684 102.097 17.1578 110.202 17.1578C113.781 17.1578 118.308 17.9999 121.571 19.7894L121.887 30.7368H119.781L118.729 23.5789C117.789 22.5676 116.648 21.7642 115.379 21.2203C114.11 20.6764 112.741 20.4042 111.36 20.421C109.36 20.421 105.465 21.5789 105.465 25.9999C105.465 28.6315 106.939 31.0526 111.15 32.842C117.044 35.1578 123.887 39.0526 123.887 46.7368C123.887 55.5789 116.939 59.6842 109.044 59.6842C104.834 59.6842 99.676 58.5263 96.4128 56.7368L96.097 45.2631Z" fill="white"/>
<path d="M0.518066 2.3158H131.255ZM0.518066 74.7369H131.255Z" fill="#23416B"/>
<path d="M0.518066 2.3158H131.255M0.518066 74.7369H131.255" stroke="#23416B" stroke-width="3.68421" stroke-miterlimit="10"/>
</svg>
