<svg width="26" height="27" viewBox="0 0 26 27" fill="none" xmlns="http://www.w3.org/2000/svg">
<path d="M17.5833 0.33252H8.23449C3.9325 0.33252 0.443848 4.0425 0.443848 8.61743V18.5593C0.443848 23.1343 3.9325 26.8442 8.23449 26.8442H17.5833C21.8853 26.8442 25.3739 23.1343 25.3739 18.5593V8.61743C25.3739 4.0425 21.8853 0.33252 17.5833 0.33252ZM23.0367 18.5593C23.0367 21.7573 20.5904 24.3588 17.5833 24.3588H8.23449C5.2273 24.3588 2.78104 21.7573 2.78104 18.5593V8.61743C2.78104 5.41946 5.2273 2.81799 8.23449 2.81799H17.5833C20.5904 2.81799 23.0367 5.41946 23.0367 8.61743V18.5593Z" fill="#2B59FF"/>
<path d="M12.9088 6.96045C9.46689 6.96045 6.67627 9.92821 6.67627 13.5886C6.67627 17.249 9.46689 20.2168 12.9088 20.2168C16.3507 20.2168 19.1414 17.249 19.1414 13.5886C19.1414 9.92821 16.3507 6.96045 12.9088 6.96045ZM12.9088 17.7312C10.7617 17.7312 9.01347 15.872 9.01347 13.5886C9.01347 11.3036 10.7617 9.44601 12.9088 9.44601C15.0559 9.44601 16.8042 11.3036 16.8042 13.5886C16.8042 15.872 15.0559 17.7312 12.9088 17.7312Z" fill="#2B59FF"/>
<path d="M19.6088 7.34668C20.0675 7.34668 20.4393 6.95132 20.4393 6.46362C20.4393 5.97592 20.0675 5.58057 19.6088 5.58057C19.1502 5.58057 18.7783 5.97592 18.7783 6.46362C18.7783 6.95132 19.1502 7.34668 19.6088 7.34668Z" fill="#2B59FF"/>
</svg>
