<svg width="26" height="27" viewBox="0 0 26 27" fill="none" xmlns="http://www.w3.org/2000/svg">
<path d="M25.5212 26.8447V26.8436H25.5275V17.1202C25.5275 12.3634 24.5645 8.69922 19.3353 8.69922C16.8215 8.69922 15.1345 10.1662 14.4458 11.557H14.3731V9.1433H9.41504V26.8436H14.5777V18.0791C14.5777 15.7714 14.9891 13.5399 17.6764 13.5399C20.3242 13.5399 20.3637 16.1735 20.3637 18.2271V26.8447H25.5212Z" fill="#2B59FF"/>
<path d="M1.0083 9.14502H6.17712V26.8447H1.0083V9.14502Z" fill="#2B59FF"/>
<path d="M3.59045 0.33252C1.93775 0.33252 0.59668 1.75861 0.59668 3.51609C0.59668 5.27358 1.93775 6.72949 3.59045 6.72949C5.24316 6.72949 6.58423 5.27358 6.58423 3.51609C6.58319 1.75861 5.24212 0.33252 3.59045 0.33252V0.33252Z" fill="#2B59FF"/>
</svg>
