<svg width="24" height="17" viewBox="0 0 24 17" fill="none" xmlns="http://www.w3.org/2000/svg">
<path d="M14.3307 16.5426C14.0225 16.2377 13.8745 15.8692 13.8869 15.4372C13.9002 15.0052 14.061 14.6368 14.3692 14.3318L18.7223 10.0247H1.54093C1.10433 10.0247 0.738106 9.87829 0.442247 9.58556C0.147416 9.29384 0 8.93199 0 8.5C0 8.06801 0.147416 7.70565 0.442247 7.41291C0.738106 7.12119 1.10433 6.97534 1.54093 6.97534H18.7223L14.3307 2.63004C14.0225 2.32511 13.8684 1.96275 13.8684 1.54296C13.8684 1.12418 14.0225 0.762331 14.3307 0.457399C14.6388 0.152466 15.0051 0 15.4293 0C15.8526 0 16.2183 0.152466 16.5265 0.457399L23.5762 7.43273C23.7303 7.5852 23.8397 7.75037 23.9045 7.92825C23.9682 8.10613 24 8.29671 24 8.5C24 8.70329 23.9682 8.89387 23.9045 9.07175C23.8397 9.24963 23.7303 9.4148 23.5762 9.56726L16.488 16.5807C16.2055 16.8602 15.8526 17 15.4293 17C15.0051 17 14.6388 16.8475 14.3307 16.5426Z" fill="#F5F5F5"/>
</svg>
