<svg width="455" height="81" viewBox="0 0 455 81" fill="none" xmlns="http://www.w3.org/2000/svg">
<path d="M70.2463 40.6111C70.2463 13.9544 86.5963 0.607422 106.76 0.607422C126.924 0.607422 143.266 13.9544 143.266 40.6111C143.266 67.3125 126.924 80.6074 106.76 80.6074C86.5963 80.6074 70.2463 67.4381 70.2463 40.6111ZM106.76 70.4679C116.708 70.4679 124.772 59.8884 124.772 40.6046C124.772 21.5051 116.708 10.7451 106.76 10.7451C96.8089 10.7451 88.7403 21.5051 88.7403 40.6046C88.7367 59.76 96.8044 70.4679 106.76 70.4679Z" fill="#C90813"/>
<path fill-rule="evenodd" clip-rule="evenodd" d="M0 3.39807V76.8864H12.5931V27.5218L51.4786 76.8864H62.0664V3.39807H50.0785V43.9078L17.7893 3.39807H0ZM407.418 3.39807L377.875 76.8864H390.635L398.78 56.6818H425.603L433.846 76.8864H454.545L424.702 3.39807H407.418ZM402.897 46.1237L412.14 23.1004L421.391 46.1237H402.897ZM288.443 52.0213C288.107 58.826 287.589 65.5571 280.192 68.0734C276.9 69.1851 270.832 69.1609 267.419 67.7674C265.785 67.0911 264.765 66.5153 263.491 65.2278C261.03 62.7516 260.057 57.4883 259.966 54.0585V3.39807H240.964V52.0213C241.146 58.7451 242.205 65.4967 246.49 70.9078C253.855 80.1962 267.359 81.5218 278.277 80.1478C285.061 79.2902 291.014 76.9999 295.78 71.919C299.075 68.412 301.129 62.8799 301.718 58.1171C302.062 55.3516 302.118 54.8967 302.118 52.0213V3.39807H288.439V52.0213H288.443ZM333.68 13.7599C341.995 13.7599 350.256 12.3246 353.875 21.0995C355.301 24.5637 355.395 32.4297 352.071 35.7748C348.11 39.7534 342.034 40.1404 336.788 40.5944L356.173 76.8864H376.05L358.465 44.5218C368.949 40.7944 373.872 34.7823 373.354 23.2957C372.791 10.893 362.473 3.39807 350.672 3.39807H314.896V76.8864H333.68V13.7599ZM210.843 76.8864L182.692 3.39807H167.908L140.562 76.8864H153.832L172.237 27.2232L190.936 76.8864H210.843ZM211.888 3.39807H196.402L191.676 15.9646L198.411 33.5544L200.827 27.2232L219.027 76.8864H240.051L211.888 3.39807Z" fill="#C90813"/>
<path fill-rule="evenodd" clip-rule="evenodd" d="M177.32 51.7695L167.902 77.816H179.923L183.419 68.0067L177.32 51.7695Z" fill="#C90813"/>
</svg>
