<svg width="16" height="17" viewBox="0 0 16 17" fill="none" xmlns="http://www.w3.org/2000/svg">
<path d="M0.28168 12.5333C0.730128 11.719 1.67685 11.1733 2.82198 11.3084C4.0329 11.4466 5.23393 11.6527 6.41861 11.9255C8.23958 12.3522 9.83497 13.1725 11.0145 13.9213L11.4131 14.1814L11.7755 14.4322L12.0999 14.6667L12.3843 14.8827L12.6262 15.0748L12.8255 15.238C13.5892 15.8763 13.0701 16.9193 12.2049 16.9958L12.1035 17H4.31771C2.79389 17 1.52737 16.2818 0.59967 15.1929C-0.101538 14.371 -0.161331 13.3374 0.282587 12.5333H0.28168ZM14.353 0C15.162 0 15.5108 0.714 15.682 1.3685L15.7364 1.5963L15.7581 1.7051C15.8886 2.38255 15.9583 3.2708 15.9864 4.1837C16.0408 5.98995 15.9302 8.0954 15.6902 9.10945C15.2716 10.8792 14.6574 12.1091 13.9217 12.8503C13.1734 13.6068 12.1624 13.9476 11.2301 13.5099C10.5153 13.175 10.0886 12.3786 9.8549 11.6994C9.51376 10.7095 9.51915 9.6432 9.8703 8.6564C10.0606 8.1192 10.403 7.6857 10.7799 7.27345L11.1087 6.9241C11.5092 6.50335 11.9105 6.0826 12.1841 5.57005C12.5827 4.82205 12.6914 4.0035 12.725 3.18155L12.7376 2.68855L12.7458 2.21255L12.7512 2.09525L12.7694 1.85725C12.8554 0.94095 13.1897 0 14.353 0Z" fill="#696969"/>
</svg>
