<svg width="24" height="17" viewBox="0 0 24 17" fill="none" xmlns="http://www.w3.org/2000/svg">
<path d="M9.66934 0.4574C9.97753 0.762334 10.1255 1.13079 10.1131 1.56278C10.0998 1.99477 9.93901 2.36323 9.63082 2.66816L5.27769 6.97534L22.4591 6.97534C22.8957 6.97534 23.2619 7.1217 23.5578 7.41444C23.8526 7.70616 24 8.06801 24 8.5C24 8.93199 23.8526 9.29435 23.5578 9.58709C23.2619 9.87881 22.8957 10.0247 22.4591 10.0247L5.27769 10.0247L9.66934 14.37C9.97753 14.6749 10.1316 15.0372 10.1316 15.457C10.1316 15.8758 9.97753 16.2377 9.66934 16.5426C9.36116 16.8475 8.99493 17 8.57066 17C8.14742 17 7.7817 16.8475 7.47352 16.5426L0.42376 9.56726C0.269667 9.4148 0.160258 9.24963 0.0955398 9.07175C0.0318477 8.89387 7.25322e-07 8.70329 7.43094e-07 8.5C7.60866e-07 8.29671 0.0318478 8.10613 0.0955399 7.92825C0.160258 7.75037 0.269667 7.5852 0.42376 7.43273L7.51204 0.419283C7.79455 0.139761 8.14742 -1.38588e-06 8.57066 -1.34888e-06C8.99493 -1.31178e-06 9.36116 0.152466 9.66934 0.4574Z" fill="#F5F5F5"/>
</svg>
