<svg width="396" height="80" viewBox="0 0 396 80" fill="none" xmlns="http://www.w3.org/2000/svg">
<g clip-path="url(#clip0_212_3074)">
<path d="M395.556 72.8889L369.333 0.444458H358.222L332 72.4445H346.667L351.111 59.5556H376.889L381.333 72.4445L395.556 72.8889ZM372.889 48H355.111L364.444 21.7778L372.889 48Z" fill="#003B5C"/>
<path d="M323.111 72.8889V0.444458H308.889V44.8889L280.444 0.444458H267.556V72.8889H281.778V28.4445L310.222 72.8889H323.111Z" fill="#003B5C"/>
<path d="M253.333 43.1111V32.4444H226.222V44.4444H239.556V47.1111C239.556 50.6667 238.667 54.2222 236.444 56.8889C234.222 59.5556 230.667 60.8889 226.222 60.8889C222.222 60.8889 219.111 59.5556 217.333 57.3333C214.667 54.2222 213.778 50.6667 213.778 36.8889C213.778 23.1111 214.667 19.5556 217.333 16.4444C219.556 14.2222 222.667 12.4444 226.222 12.4444C233.333 12.4444 237.778 16 239.111 23.1111H253.333C251.556 11.1111 243.111 0 226.222 0C218.222 0 212 2.66667 206.667 8C199.556 15.1111 199.556 24.4444 199.556 36.8889C199.556 49.3333 199.556 58.2222 206.667 65.7778C211.556 70.6667 218.222 73.7778 226.222 73.7778C233.778 73.7778 240.889 71.5556 246.667 65.7778C251.556 60 253.333 53.7778 253.333 43.1111Z" fill="#003B5C"/>
<path d="M185.333 0.444458H171.111V72.4445H185.333V0.444458Z" fill="#003B5C"/>
<path d="M157.778 51.5555C157.778 45.3333 156 40 152 36.4444C148.889 33.7778 144.889 32 138.222 30.6667L129.778 29.3333C126.667 28.8889 124.444 28 123.111 26.6667C121.778 25.3333 120.889 23.1111 120.889 21.3333C120.889 16.4444 124.444 12 132 12C136.889 12 142.222 12.4444 146.667 16.8889L155.556 7.99999C149.333 2.22221 142.222 -0.444458 132.444 -0.444458C116.889 -0.444458 107.111 8.44443 107.111 21.3333C107.111 27.5555 108.889 32 112.444 35.5555C115.556 38.6667 120.444 40.4444 126.222 41.3333L135.111 42.6667C138.222 43.1111 140 44 141.333 45.3333C142.667 46.6667 143.556 48.8889 143.556 51.5555C143.556 57.3333 139.111 60.4444 130.667 60.4444C124 60.4444 117.778 59.1111 113.333 54.2222L104 63.5555C111.111 70.6667 119.556 72.8889 130.222 72.8889C146.222 73.3333 157.778 65.3333 157.778 51.5555Z" fill="#003B5C"/>
<path d="M42.6667 29.3333H28.4445V72.4444H42.6667V29.3333Z" fill="#003B5C"/>
<path d="M0 0.444458V72.8889H14.2222V15.1111H56.8889V72.8889H71.1111V0.444458H0Z" fill="#003B5C"/>
</g>
<defs>
<clipPath id="clip0_212_3074">
<rect width="395.556" height="80" fill="white"/>
</clipPath>
</defs>
</svg>
