<svg width="129" height="25" viewBox="0 0 129 25" fill="none" xmlns="http://www.w3.org/2000/svg">
<path d="M13.0642 20.3972L6.89906 24.1111C6.6267 24.2844 6.34197 24.3587 6.04486 24.3339C5.74774 24.3092 5.48777 24.2101 5.26493 24.0368C5.0421 23.8635 4.86878 23.6471 4.74499 23.3876C4.62119 23.1272 4.59643 22.836 4.67071 22.5141L6.30483 15.4948L0.845373 10.7781C0.597779 10.5553 0.44328 10.3013 0.381876 10.016C0.319482 9.73181 0.337804 9.45351 0.436842 9.18116C0.53588 8.90881 0.684437 8.68597 0.882512 8.51265C1.08059 8.33934 1.35294 8.22792 1.69957 8.1784L8.90457 7.54704L11.69 0.936263C11.8138 0.639149 12.0059 0.416314 12.2664 0.267757C12.5259 0.1192 12.7918 0.0449219 13.0642 0.0449219C13.3365 0.0449219 13.6029 0.1192 13.8634 0.267757C14.1229 0.416314 14.3145 0.639149 14.4383 0.936263L17.2237 7.54704L24.4287 8.1784C24.7754 8.22792 25.0477 8.33934 25.2458 8.51265C25.4439 8.68597 25.5924 8.90881 25.6915 9.18116C25.7905 9.45351 25.8093 9.73181 25.7479 10.016C25.6855 10.3013 25.5305 10.5553 25.283 10.7781L19.8235 15.4948L21.4576 22.5141C21.5319 22.836 21.5071 23.1272 21.3833 23.3876C21.2595 23.6471 21.0862 23.8635 20.8634 24.0368C20.6406 24.2101 20.3806 24.3092 20.0835 24.3339C19.7864 24.3587 19.5016 24.2844 19.2293 24.1111L13.0642 20.3972Z" fill="#FF971D"/>
<path d="M47.2326 20.3972L41.0675 24.1111C40.7952 24.2844 40.5104 24.3587 40.2133 24.3339C39.9162 24.3092 39.6562 24.2101 39.4334 24.0368C39.2106 23.8635 39.0372 23.6471 38.9134 23.3876C38.7896 23.1272 38.7649 22.836 38.8392 22.5141L40.4733 15.4948L35.0138 10.7781C34.7662 10.5553 34.6117 10.3013 34.5503 10.016C34.4879 9.73181 34.5063 9.45351 34.6053 9.18116C34.7043 8.90881 34.8529 8.68597 35.051 8.51265C35.249 8.33934 35.5214 8.22792 35.868 8.1784L43.073 7.54704L45.8585 0.936263C45.9823 0.639149 46.1744 0.416314 46.4349 0.267757C46.6943 0.1192 46.9603 0.0449219 47.2326 0.0449219C47.505 0.0449219 47.7714 0.1192 48.0319 0.267757C48.2913 0.416314 48.483 0.639149 48.6068 0.936263L51.3922 7.54704L58.5972 8.1784C58.9438 8.22792 59.2162 8.33934 59.4143 8.51265C59.6123 8.68597 59.7609 8.90881 59.8599 9.18116C59.959 9.45351 59.9778 9.73181 59.9164 10.016C59.854 10.3013 59.699 10.5553 59.4514 10.7781L53.9919 15.4948L55.6261 22.5141C55.7003 22.836 55.6756 23.1272 55.5518 23.3876C55.428 23.6471 55.2547 23.8635 55.0318 24.0368C54.809 24.2101 54.549 24.3092 54.2519 24.3339C53.9548 24.3587 53.6701 24.2844 53.3977 24.1111L47.2326 20.3972Z" fill="#FF971D"/>
<path d="M81.4011 20.3972L75.236 24.1111C74.9636 24.2844 74.6789 24.3587 74.3818 24.3339C74.0847 24.3092 73.8247 24.2101 73.6018 24.0368C73.379 23.8635 73.2057 23.6471 73.0819 23.3876C72.9581 23.1272 72.9333 22.836 73.0076 22.5141L74.6417 15.4948L69.1823 10.7781C68.9347 10.5553 68.7802 10.3013 68.7188 10.016C68.6564 9.73181 68.6747 9.45351 68.7738 9.18116C68.8728 8.90881 69.0214 8.68597 69.2194 8.51265C69.4175 8.33934 69.6899 8.22792 70.0365 8.1784L77.2415 7.54704L80.0269 0.936263C80.1507 0.639149 80.3429 0.416314 80.6033 0.267757C80.8628 0.1192 81.1287 0.0449219 81.4011 0.0449219C81.6734 0.0449219 81.9398 0.1192 82.2003 0.267757C82.4598 0.416314 82.6514 0.639149 82.7752 0.936263L85.5607 7.54704L92.7657 8.1784C93.1123 8.22792 93.3847 8.33934 93.5827 8.51265C93.7808 8.68597 93.9294 8.90881 94.0284 9.18116C94.1274 9.45351 94.1462 9.73181 94.0848 10.016C94.0225 10.3013 93.8675 10.5553 93.6199 10.7781L88.1604 15.4948L89.7945 22.5141C89.8688 22.836 89.844 23.1272 89.7203 23.3876C89.5965 23.6471 89.4231 23.8635 89.2003 24.0368C88.9775 24.2101 88.7175 24.3092 88.4204 24.3339C88.1233 24.3587 87.8385 24.2844 87.5662 24.1111L81.4011 20.3972Z" fill="#FF971D"/>
<path d="M115.568 20.3972L109.402 24.1111C109.13 24.2844 108.845 24.3587 108.548 24.3339C108.251 24.3092 107.991 24.2101 107.768 24.0368C107.546 23.8635 107.372 23.6471 107.248 23.3876C107.125 23.1272 107.1 22.836 107.174 22.5141L108.808 15.4948L103.349 10.7781C103.101 10.5553 102.947 10.3013 102.885 10.016C102.823 9.73181 102.841 9.45351 102.94 9.18116C103.039 8.90881 103.188 8.68597 103.386 8.51265C103.584 8.33934 103.856 8.22792 104.203 8.1784L111.408 7.54704L114.193 0.936263C114.317 0.639149 114.509 0.416314 114.77 0.267757C115.029 0.1192 115.295 0.0449219 115.568 0.0449219C115.84 0.0449219 116.106 0.1192 116.367 0.267757C116.626 0.416314 116.818 0.639149 116.942 0.936263L119.727 7.54704L126.932 8.1784C127.279 8.22792 127.551 8.33934 127.749 8.51265C127.947 8.68597 128.096 8.90881 128.195 9.18116C128.294 9.45351 128.313 9.73181 128.251 10.016C128.189 10.3013 128.034 10.5553 127.786 10.7781L122.327 15.4948L123.961 22.5141C124.035 22.836 124.011 23.1272 123.887 23.3876C123.763 23.6471 123.59 23.8635 123.367 24.0368C123.144 24.2101 122.884 24.3092 122.587 24.3339C122.29 24.3587 122.005 24.2844 121.733 24.1111L115.568 20.3972Z" fill="#FF971D"/>
</svg>
