<svg width="49" height="49" viewBox="0 0 49 49" fill="none" xmlns="http://www.w3.org/2000/svg">
<path d="M48.5833 15.4583C48.5833 6.91208 41.6713 0 33.125 0C25.3296 0 18.9254 5.76375 17.8433 13.25H7.72917C6.27167 13.25 5.035 14.1775 4.59333 15.4583L0 28.7083V46.375C0 47.5896 0.99375 48.5833 2.20833 48.5833H4.41667C5.63125 48.5833 6.625 47.5896 6.625 46.375V44.1667H33.125V46.375C33.125 47.5896 34.1188 48.5833 35.3333 48.5833H37.5417C38.7563 48.5833 39.75 47.5896 39.75 46.375V29.415C44.9617 26.9196 48.5833 21.6196 48.5833 15.4583ZM7.72917 16.5625H17.7329C17.9979 20.4492 19.6983 23.9383 22.3263 26.5H4.41667L7.72917 16.5625ZM7.72917 37.5417C5.89625 37.5417 4.41667 36.0621 4.41667 34.2292C4.41667 32.3963 5.89625 30.9167 7.72917 30.9167C9.56208 30.9167 11.0417 32.3963 11.0417 34.2292C11.0417 36.0621 9.56208 37.5417 7.72917 37.5417ZM32.0208 37.5417C30.1879 37.5417 28.7083 36.0621 28.7083 34.2292C28.7083 32.3963 30.1879 30.9167 32.0208 30.9167C33.8538 30.9167 35.3333 32.3963 35.3333 34.2292C35.3333 36.0621 33.8538 37.5417 32.0208 37.5417ZM33.125 26.5C30.0554 26.5 27.4717 25.3958 25.3296 23.2538C23.1875 21.1117 22.0833 18.5279 22.0833 15.4583C22.0833 12.455 23.1875 9.84917 25.3296 7.72917C27.4717 5.52083 30.0554 4.41667 33.125 4.41667C36.1283 4.41667 38.7342 5.52083 40.8542 7.72917C43.0625 9.84917 44.1667 12.455 44.1667 15.4583C44.1667 18.5279 43.0625 21.1117 40.8542 23.2538C38.7342 25.3958 36.1283 26.5 33.125 26.5ZM34.2292 16.0104L40.545 19.7425L38.8888 22.4367L30.9167 17.6667V6.625H34.2292V16.0104Z" fill="white"/>
</svg>
