<svg width="49" height="49" viewBox="0 0 49 49" fill="none" xmlns="http://www.w3.org/2000/svg">
<path d="M48.7913 15.6667C48.7913 7.12046 41.8793 0.208374 33.333 0.208374C25.5376 0.208374 19.1334 5.97212 18.0513 13.4584H7.93717C6.47967 13.4584 5.24301 14.3859 4.80134 15.6667L0.208008 28.9167V46.5834C0.208008 47.798 1.20176 48.7917 2.41634 48.7917H4.62467C5.83926 48.7917 6.83301 47.798 6.83301 46.5834V44.375H33.333V46.5834C33.333 47.798 34.3268 48.7917 35.5413 48.7917H37.7497C38.9643 48.7917 39.958 47.798 39.958 46.5834V29.6234C45.1697 27.128 48.7913 21.828 48.7913 15.6667ZM7.93717 16.7709H17.9409C18.2059 20.6575 19.9063 24.1467 22.5343 26.7084H4.62467L7.93717 16.7709ZM7.93717 37.75C6.10426 37.75 4.62467 36.2705 4.62467 34.4375C4.62467 32.6046 6.10426 31.125 7.93717 31.125C9.77009 31.125 11.2497 32.6046 11.2497 34.4375C11.2497 36.2705 9.77009 37.75 7.93717 37.75ZM32.2288 37.75C30.3959 37.75 28.9163 36.2705 28.9163 34.4375C28.9163 32.6046 30.3959 31.125 32.2288 31.125C34.0618 31.125 35.5413 32.6046 35.5413 34.4375C35.5413 36.2705 34.0618 37.75 32.2288 37.75ZM33.333 26.7084C30.2634 26.7084 27.6797 25.6042 25.5376 23.4621C23.3955 21.32 22.2913 18.7363 22.2913 15.6667C22.2913 12.6634 23.3955 10.0575 25.5376 7.93754C27.6797 5.72921 30.2634 4.62504 33.333 4.62504C36.3363 4.62504 38.9422 5.72921 41.0622 7.93754C43.2705 10.0575 44.3747 12.6634 44.3747 15.6667C44.3747 18.7363 43.2705 21.32 41.0622 23.4621C38.9422 25.6042 36.3363 26.7084 33.333 26.7084ZM34.4372 16.2188L40.753 19.9509L39.0968 22.645L31.1247 17.875V6.83337H34.4372V16.2188Z" fill="#010101"/>
</svg>
