<svg width="26" height="23" viewBox="0 0 26 23" fill="none" xmlns="http://www.w3.org/2000/svg">
<path d="M25.6802 3.368C24.7531 3.80047 23.7652 4.08713 22.7353 4.22632C23.7948 3.55358 24.6035 2.49641 24.9837 1.22218C23.9958 1.84853 22.9051 2.29095 21.7428 2.53784C20.8048 1.4757 19.4679 0.817871 18.0095 0.817871C15.1799 0.817871 12.9019 3.26029 12.9019 6.25449C12.9019 6.68531 12.9362 7.09956 13.0203 7.49393C8.77128 7.27355 5.0115 5.10785 2.48576 1.80876C2.04481 2.62235 1.78616 3.55358 1.78616 4.55607C1.78616 6.43842 2.69767 8.10702 4.05636 9.07305C3.23523 9.05648 2.42967 8.80296 1.74721 8.40362C1.74721 8.42019 1.74721 8.44173 1.74721 8.46327C1.74721 11.1045 3.51881 13.2984 5.84199 13.8038C5.42597 13.9248 4.97255 13.9827 4.50199 13.9827C4.17478 13.9827 3.84446 13.9629 3.53439 13.89C4.1966 16.0424 6.07571 17.6248 8.31008 17.6762C6.5712 19.1228 4.36332 19.9943 1.97314 19.9943C1.554 19.9943 1.152 19.9745 0.75 19.9198C3.01397 21.4724 5.69708 22.3589 8.59054 22.3589C17.9954 22.3589 23.1373 14.0739 23.1373 6.89244C23.1373 6.65217 23.1295 6.42019 23.1186 6.18987C24.1329 5.42433 24.9852 4.46824 25.6802 3.368Z" fill="white"/>
</svg>
