<svg width="21" height="16" viewBox="0 0 21 16" fill="none" xmlns="http://www.w3.org/2000/svg">
<path d="M0.425975 5.92661C0.942695 6.46612 1.76337 6.51901 2.32061 6.0324C7.05214 1.97025 13.9215 1.97025 18.6631 6.02182C19.2305 6.50843 20.0613 6.46612 20.578 5.92661C21.1758 5.30248 21.1353 4.26578 20.4767 3.70512C14.6915 -1.23504 6.32266 -1.23504 0.527293 3.70512C-0.131271 4.25521 -0.18193 5.2919 0.425975 5.92661ZM8.28822 14.1355L9.77758 15.6906C10.1727 16.1031 10.811 16.1031 11.2062 15.6906L12.6955 14.1355C13.1717 13.6383 13.0704 12.7815 12.4625 12.4536C11.8497 12.125 11.1707 11.9536 10.4817 11.9536C9.79283 11.9536 9.11383 12.125 8.50098 12.4536C7.92347 12.7815 7.81202 13.6383 8.28822 14.1355ZM4.50907 10.1898C5.00553 10.7081 5.78567 10.761 6.36318 10.3273C7.57195 9.43433 9.01622 8.95482 10.4969 8.95482C11.9777 8.95482 13.4219 9.43433 14.6307 10.3273C15.2082 10.7504 15.9883 10.7081 16.4848 10.1898L16.4949 10.1792C17.1028 9.54446 17.0623 8.46545 16.3632 7.94711C12.8779 5.31306 8.12611 5.31306 4.63065 7.94711C3.93156 8.47603 3.89103 9.54446 4.50907 10.1898Z" fill="#696969"/>
</svg>
