<svg width="227" height="81" viewBox="0 0 227 81" fill="none" xmlns="http://www.w3.org/2000/svg">
<path d="M18.1395 80.6074L0 30.3749H22.7907L28.8372 46.1888L35.3488 30.3749H49.3023L55.814 46.1888L62.3256 30.3749H83.7209L66.9767 80.6074H49.3023L42.3256 62.4679L35.3488 80.6074H18.1395Z" fill="black"/>
<path d="M160.465 80.6074L142.326 30.3749H165.116L171.163 46.1888L177.675 30.3749H191.628L198.14 46.1888L204.651 30.3749H226.047L209.302 80.6074H191.628L184.651 62.4679L177.675 80.6074H160.465Z" fill="#CD2026"/>
<path d="M83.7209 80.6074V30.3749H106.591V45.8672C114.15 43.1827 117.183 40.3626 118.026 30.3749H142.326C141.12 46.2062 139.35 51.7239 132.32 55.2564C139.526 62.643 141.712 68.2073 142.326 80.6074H118.026C116.875 67.0484 114.276 63.3175 106.591 62.7678V80.6074H83.7209Z" fill="black"/>
<path d="M25.7276 1.15354C13.1782 2.62814 -0.589686 5.0858 0.019511 5.8231C0.38503 6.06887 5.50229 5.70022 11.3506 4.84004C25.2403 2.99679 61.0611 4.10274 75.8037 6.80617C81.8957 7.91211 96.1509 11.23 107.482 14.1792C133.799 20.9377 148.298 22.6581 173.153 21.7979C192.16 21.1835 221.036 17.2512 225.057 14.6707C226.519 13.6876 226.397 13.5647 224.448 14.0563C213.604 16.7597 192.526 18.7258 173.884 18.7258C148.664 18.7258 135.749 17.0055 106.507 9.38671C94.9325 6.31463 81.1646 3.36544 75.9255 2.62814C62.5232 0.662012 36.084 0.0475963 25.7276 1.15354Z" fill="#CD2026"/>
</svg>
